0
SECTION
2
HEADER
9
$ACADVER
1
AC1015
9
$INSUNITS
70
4
0
ENDSEC
0
SECTION
2
TABLES
0
TABLE
2
LAYER
70
8
0
LAYER
2
01_BUILDING
70
0
62
7
6
CONTINUOUS
0
LAYER
2
02_POOL
70
0
62
5
6
CONTINUOUS
0
LAYER
2
03_SECOND
70
0
62
2
6
CONTINUOUS
0
LAYER
2
04_ROOF
70
0
62
3
6
CONTINUOUS
0
LAYER
2
05_GLASS
70
0
62
4
6
CONTINUOUS
0
LAYER
2
06_STAIR
70
0
62
6
6
CONTINUOUS
0
LAYER
2
07_ENTRANCE
70
0
62
1
6
CONTINUOUS
0
LAYER
2
90_NOTE
70
0
62
9
6
CONTINUOUS
0
ENDTAB
0
ENDSEC
0
SECTION
2
ENTITIES
0
3DFACE
8
01_BUILDING
10
0.000
20
0.000
30
-200.000
11
30000.000
21
0.000
31
-200.000
12
30000.000
22
12500.000
32
-200.000
13
0.000
23
12500.000
33
-200.000
0
3DFACE
8
01_BUILDING
10
0.000
20
0.000
30
0.000
11
0.000
21
12500.000
31
0.000
12
30000.000
22
12500.000
32
0.000
13
30000.000
23
0.000
33
0.000
0
3DFACE
8
01_BUILDING
10
0.000
20
0.000
30
-200.000
11
0.000
21
0.000
31
0.000
12
30000.000
22
0.000
32
0.000
13
30000.000
23
0.000
33
-200.000
0
3DFACE
8
01_BUILDING
10
30000.000
20
0.000
30
-200.000
11
30000.000
21
0.000
31
0.000
12
30000.000
22
12500.000
32
0.000
13
30000.000
23
12500.000
33
-200.000
0
3DFACE
8
01_BUILDING
10
30000.000
20
12500.000
30
-200.000
11
30000.000
21
12500.000
31
0.000
12
0.000
22
12500.000
32
0.000
13
0.000
23
12500.000
33
-200.000
0
3DFACE
8
01_BUILDING
10
0.000
20
12500.000
30
-200.000
11
0.000
21
12500.000
31
0.000
12
0.000
22
0.000
32
0.000
13
0.000
23
0.000
33
-200.000
0
3DFACE
8
02_POOL
10
8500.000
20
2500.000
30
-1200.000
11
29000.000
21
2500.000
31
-1500.000
12
29000.000
22
10000.000
32
-1500.000
13
8500.000
23
10000.000
33
-1200.000
0
3DFACE
8
02_POOL
10
8500.000
20
2500.000
30
0.000
11
29000.000
21
2500.000
31
0.000
12
29000.000
22
2500.000
32
-1500.000
13
8500.000
23
2500.000
33
-1200.000
0
3DFACE
8
02_POOL
10
8500.000
20
10000.000
30
0.000
11
8500.000
21
10000.000
31
-1200.000
12
29000.000
22
10000.000
32
-1500.000
13
29000.000
23
10000.000
33
0.000
0
3DFACE
8
02_POOL
10
8500.000
20
2500.000
30
0.000
11
8500.000
21
2500.000
31
-1200.000
12
8500.000
22
10000.000
32
-1200.000
13
8500.000
23
10000.000
33
0.000
0
3DFACE
8
02_POOL
10
29000.000
20
2500.000
30
0.000
11
29000.000
21
10000.000
31
0.000
12
29000.000
22
10000.000
32
-1500.000
13
29000.000
23
2500.000
33
-1500.000
0
3DFACE
8
02_POOL
10
8620.000
20
2620.000
30
-80.000
11
28880.000
21
2620.000
31
-80.000
12
28880.000
22
9880.000
32
-80.000
13
8620.000
23
9880.000
33
-80.000
0
3DFACE
8
03_SECOND
10
0.000
20
0.000
30
4020.000
11
8500.000
21
0.000
31
4020.000
12
8500.000
22
12500.000
32
4020.000
13
0.000
23
12500.000
33
4020.000
0
3DFACE
8
03_SECOND
10
0.000
20
0.000
30
4200.000
11
0.000
21
12500.000
31
4200.000
12
8500.000
22
12500.000
32
4200.000
13
8500.000
23
0.000
33
4200.000
0
3DFACE
8
03_SECOND
10
0.000
20
0.000
30
4020.000
11
0.000
21
0.000
31
4200.000
12
8500.000
22
0.000
32
4200.000
13
8500.000
23
0.000
33
4020.000
0
3DFACE
8
03_SECOND
10
8500.000
20
0.000
30
4020.000
11
8500.000
21
0.000
31
4200.000
12
8500.000
22
12500.000
32
4200.000
13
8500.000
23
12500.000
33
4020.000
0
3DFACE
8
03_SECOND
10
8500.000
20
12500.000
30
4020.000
11
8500.000
21
12500.000
31
4200.000
12
0.000
22
12500.000
32
4200.000
13
0.000
23
12500.000
33
4020.000
0
3DFACE
8
03_SECOND
10
0.000
20
12500.000
30
4020.000
11
0.000
21
12500.000
31
4200.000
12
0.000
22
0.000
32
4200.000
13
0.000
23
0.000
33
4020.000
0
3DFACE
8
03_SECOND
10
350.000
20
650.000
30
4200.000
11
8150.000
21
650.000
31
4200.000
12
8150.000
22
6050.000
32
4200.000
13
350.000
23
6050.000
33
4200.000
0
3DFACE
8
03_SECOND
10
350.000
20
650.000
30
7600.000
11
350.000
21
6050.000
31
7600.000
12
8150.000
22
6050.000
32
7600.000
13
8150.000
23
650.000
33
7600.000
0
3DFACE
8
03_SECOND
10
350.000
20
650.000
30
4200.000
11
350.000
21
650.000
31
7600.000
12
8150.000
22
650.000
32
7600.000
13
8150.000
23
650.000
33
4200.000
0
3DFACE
8
03_SECOND
10
8150.000
20
650.000
30
4200.000
11
8150.000
21
650.000
31
7600.000
12
8150.000
22
6050.000
32
7600.000
13
8150.000
23
6050.000
33
4200.000
0
3DFACE
8
03_SECOND
10
8150.000
20
6050.000
30
4200.000
11
8150.000
21
6050.000
31
7600.000
12
350.000
22
6050.000
32
7600.000
13
350.000
23
6050.000
33
4200.000
0
3DFACE
8
03_SECOND
10
350.000
20
6050.000
30
4200.000
11
350.000
21
6050.000
31
7600.000
12
350.000
22
650.000
32
7600.000
13
350.000
23
650.000
33
4200.000
0
3DFACE
8
03_SECOND
10
350.000
20
6450.000
30
4200.000
11
8150.000
21
6450.000
31
4200.000
12
8150.000
22
11850.000
32
4200.000
13
350.000
23
11850.000
33
4200.000
0
3DFACE
8
03_SECOND
10
350.000
20
6450.000
30
7600.000
11
350.000
21
11850.000
31
7600.000
12
8150.000
22
11850.000
32
7600.000
13
8150.000
23
6450.000
33
7600.000
0
3DFACE
8
03_SECOND
10
350.000
20
6450.000
30
4200.000
11
350.000
21
6450.000
31
7600.000
12
8150.000
22
6450.000
32
7600.000
13
8150.000
23
6450.000
33
4200.000
0
3DFACE
8
03_SECOND
10
8150.000
20
6450.000
30
4200.000
11
8150.000
21
6450.000
31
7600.000
12
8150.000
22
11850.000
32
7600.000
13
8150.000
23
11850.000
33
4200.000
0
3DFACE
8
03_SECOND
10
8150.000
20
11850.000
30
4200.000
11
8150.000
21
11850.000
31
7600.000
12
350.000
22
11850.000
32
7600.000
13
350.000
23
11850.000
33
4200.000
0
3DFACE
8
03_SECOND
10
350.000
20
11850.000
30
4200.000
11
350.000
21
11850.000
31
7600.000
12
350.000
22
6450.000
32
7600.000
13
350.000
23
6450.000
33
4200.000
0
3DFACE
8
03_SECOND
10
7600.000
20
350.000
30
4040.000
11
28500.000
21
350.000
31
4040.000
12
28500.000
22
2000.000
32
4040.000
13
7600.000
23
2000.000
33
4040.000
0
3DFACE
8
03_SECOND
10
7600.000
20
350.000
30
4200.000
11
7600.000
21
2000.000
31
4200.000
12
28500.000
22
2000.000
32
4200.000
13
28500.000
23
350.000
33
4200.000
0
3DFACE
8
03_SECOND
10
7600.000
20
350.000
30
4040.000
11
7600.000
21
350.000
31
4200.000
12
28500.000
22
350.000
32
4200.000
13
28500.000
23
350.000
33
4040.000
0
3DFACE
8
03_SECOND
10
28500.000
20
350.000
30
4040.000
11
28500.000
21
350.000
31
4200.000
12
28500.000
22
2000.000
32
4200.000
13
28500.000
23
2000.000
33
4040.000
0
3DFACE
8
03_SECOND
10
28500.000
20
2000.000
30
4040.000
11
28500.000
21
2000.000
31
4200.000
12
7600.000
22
2000.000
32
4200.000
13
7600.000
23
2000.000
33
4040.000
0
3DFACE
8
03_SECOND
10
7600.000
20
2000.000
30
4040.000
11
7600.000
21
2000.000
31
4200.000
12
7600.000
22
350.000
32
4200.000
13
7600.000
23
350.000
33
4040.000
0
3DFACE
8
05_GLASS
10
0.000
20
0.000
30
0.000
11
30000.000
21
0.000
31
0.000
12
30000.000
22
0.000
32
13089.809
13
0.000
23
0.000
33
7800.000
0
3DFACE
8
05_GLASS
10
0.000
20
12500.000
30
0.000
11
0.000
21
12500.000
31
7800.000
12
30000.000
22
12500.000
32
13089.809
13
30000.000
23
12500.000
33
0.000
0
3DFACE
8
04_ROOF
10
0.000
20
0.000
30
7800.000
11
30000.000
21
0.000
31
13089.809
12
30000.000
22
12500.000
32
13089.809
13
0.000
23
12500.000
33
7800.000
0
3DFACE
8
07_ENTRANCE
10
-2200.000
20
4150.000
30
0.000
11
0.000
21
4150.000
31
0.000
12
0.000
22
8350.000
32
0.000
13
-2200.000
23
8350.000
33
0.000
0
3DFACE
8
07_ENTRANCE
10
-2200.000
20
4150.000
30
350.000
11
-2200.000
21
8350.000
31
350.000
12
0.000
22
8350.000
32
350.000
13
0.000
23
4150.000
33
350.000
0
3DFACE
8
07_ENTRANCE
10
-2200.000
20
4150.000
30
0.000
11
-2200.000
21
4150.000
31
350.000
12
0.000
22
4150.000
32
350.000
13
0.000
23
4150.000
33
0.000
0
3DFACE
8
07_ENTRANCE
10
0.000
20
4150.000
30
0.000
11
0.000
21
4150.000
31
350.000
12
0.000
22
8350.000
32
350.000
13
0.000
23
8350.000
33
0.000
0
3DFACE
8
07_ENTRANCE
10
0.000
20
8350.000
30
0.000
11
0.000
21
8350.000
31
350.000
12
-2200.000
22
8350.000
32
350.000
13
-2200.000
23
8350.000
33
0.000
0
3DFACE
8
07_ENTRANCE
10
-2200.000
20
8350.000
30
0.000
11
-2200.000
21
8350.000
31
350.000
12
-2200.000
22
4150.000
32
350.000
13
-2200.000
23
4150.000
33
0.000
0
3DFACE
8
07_ENTRANCE
10
-2200.000
20
4150.000
30
0.000
11
-1950.000
21
4150.000
31
0.000
12
-1950.000
22
8350.000
32
0.000
13
-2200.000
23
8350.000
33
0.000
0
3DFACE
8
07_ENTRANCE
10
-2200.000
20
4150.000
30
4200.000
11
-2200.000
21
8350.000
31
4200.000
12
-1950.000
22
8350.000
32
4200.000
13
-1950.000
23
4150.000
33
4200.000
0
3DFACE
8
07_ENTRANCE
10
-2200.000
20
4150.000
30
0.000
11
-2200.000
21
4150.000
31
4200.000
12
-1950.000
22
4150.000
32
4200.000
13
-1950.000
23
4150.000
33
0.000
0
3DFACE
8
07_ENTRANCE
10
-1950.000
20
4150.000
30
0.000
11
-1950.000
21
4150.000
31
4200.000
12
-1950.000
22
8350.000
32
4200.000
13
-1950.000
23
8350.000
33
0.000
0
3DFACE
8
07_ENTRANCE
10
-1950.000
20
8350.000
30
0.000
11
-1950.000
21
8350.000
31
4200.000
12
-2200.000
22
8350.000
32
4200.000
13
-2200.000
23
8350.000
33
0.000
0
3DFACE
8
07_ENTRANCE
10
-2200.000
20
8350.000
30
0.000
11
-2200.000
21
8350.000
31
4200.000
12
-2200.000
22
4150.000
32
4200.000
13
-2200.000
23
4150.000
33
0.000
0
3DFACE
8
07_ENTRANCE
10
-250.000
20
4150.000
30
0.000
11
0.000
21
4150.000
31
0.000
12
0.000
22
8350.000
32
0.000
13
-250.000
23
8350.000
33
0.000
0
3DFACE
8
07_ENTRANCE
10
-250.000
20
4150.000
30
4200.000
11
-250.000
21
8350.000
31
4200.000
12
0.000
22
8350.000
32
4200.000
13
0.000
23
4150.000
33
4200.000
0
3DFACE
8
07_ENTRANCE
10
-250.000
20
4150.000
30
0.000
11
-250.000
21
4150.000
31
4200.000
12
0.000
22
4150.000
32
4200.000
13
0.000
23
4150.000
33
0.000
0
3DFACE
8
07_ENTRANCE
10
0.000
20
4150.000
30
0.000
11
0.000
21
4150.000
31
4200.000
12
0.000
22
8350.000
32
4200.000
13
0.000
23
8350.000
33
0.000
0
3DFACE
8
07_ENTRANCE
10
0.000
20
8350.000
30
0.000
11
0.000
21
8350.000
31
4200.000
12
-250.000
22
8350.000
32
4200.000
13
-250.000
23
8350.000
33
0.000
0
3DFACE
8
07_ENTRANCE
10
-250.000
20
8350.000
30
0.000
11
-250.000
21
8350.000
31
4200.000
12
-250.000
22
4150.000
32
4200.000
13
-250.000
23
4150.000
33
0.000
0
3DFACE
8
07_ENTRANCE
10
-2200.000
20
4150.000
30
3900.000
11
700.000
21
4150.000
31
3900.000
12
700.000
22
8350.000
32
3900.000
13
-2200.000
23
8350.000
33
3900.000
0
3DFACE
8
07_ENTRANCE
10
-2200.000
20
4150.000
30
4200.000
11
-2200.000
21
8350.000
31
4200.000
12
700.000
22
8350.000
32
4200.000
13
700.000
23
4150.000
33
4200.000
0
3DFACE
8
07_ENTRANCE
10
-2200.000
20
4150.000
30
3900.000
11
-2200.000
21
4150.000
31
4200.000
12
700.000
22
4150.000
32
4200.000
13
700.000
23
4150.000
33
3900.000
0
3DFACE
8
07_ENTRANCE
10
700.000
20
4150.000
30
3900.000
11
700.000
21
4150.000
31
4200.000
12
700.000
22
8350.000
32
4200.000
13
700.000
23
8350.000
33
3900.000
0
3DFACE
8
07_ENTRANCE
10
700.000
20
8350.000
30
3900.000
11
700.000
21
8350.000
31
4200.000
12
-2200.000
22
8350.000
32
4200.000
13
-2200.000
23
8350.000
33
3900.000
0
3DFACE
8
07_ENTRANCE
10
-2200.000
20
8350.000
30
3900.000
11
-2200.000
21
8350.000
31
4200.000
12
-2200.000
22
4150.000
32
4200.000
13
-2200.000
23
4150.000
33
3900.000
0
TEXT
8
90_NOTE
10
-2500
20
-1400
30
0
40
280
1
ZHONGSHI POOL V03 - ROOF CORRECTION
0
TEXT
8
90_NOTE
10
-2500
20
-1800
30
0
40
230
1
ROOF: 10 DEG, DOWN TO LEFT / UP TO RIGHT
0
TEXT
8
90_NOTE
10
-2500
20
-2200
30
0
40
230
1
TEMP ROOF LEFT=7.80m RIGHT=13.09m
0
ENDSEC
0
EOF
