<svg xmlns="http://www.w3.org/2000/svg" width="1920" height="1080" viewBox="0 0 1920 1080" role="img" aria-labelledby="title desc" data-model-version="0.6.2" data-active-geometry="GEO-0.6.2" data-coordinate-system="SITE-XY">
  <title id="title">3F 概念平面圖 v0.6.2</title><desc id="desc">PROJECT / MODEL v0.6.2 · L3 +6.88 m · +25.5°／+23.0° 工作值 · SITE-XY。概念設計，非施工圖。</desc><style>
  text{font-family:"Noto Sans TC","Microsoft JhengHei",sans-serif;fill:#263746}.title{font-size:31px;font-weight:800}.subtitle{font-size:15px;fill:#536b75}.label{font-size:14px;font-weight:700}.small{font-size:12px}.tiny{font-size:10px}.grid{stroke:#cbd7da;stroke-width:.55}.gridMajor{stroke:#9fb2b8;stroke-width:.9}.outline{fill:none;stroke:#263746;stroke-width:2}.reference{fill:#eef2f2;stroke:#97a8ad;stroke-width:1.2;stroke-dasharray:7 5}.pool{fill:#bfe4ef;stroke:#227698;stroke-width:2}.lane{stroke:#f8fbfc;stroke-width:2;stroke-dasharray:8 5}.working{fill:#f1dfbe;stroke:#a96f28;stroke-width:1.6}.confirmed{fill:#d8ece4;stroke:#237c64;stroke-width:1.6}.service{fill:#dbe5e6;stroke:#5b7278;stroke-width:1.6}.chemical{fill:#ead9e8;stroke:#8e5a88;stroke-width:1.6}.deferred{fill:#e4dbed;stroke:#7c5c98;stroke-width:1.5;stroke-dasharray:6 4}.stair{fill:#d7dde0;stroke:#263746;stroke-width:1.6}.structure{fill:#c3793c;fill-opacity:.18;stroke:#a95c25;stroke-width:2.2;stroke-dasharray:8 4}.dim{stroke:#536b75;stroke-width:1;fill:none}.titleBox{fill:#f6f8f8;stroke:#263746;stroke-width:1.2}.note{fill:#f7f8f8;stroke:#a8b6ba;stroke-width:1}.mirror{stroke:#4f8792;stroke-width:7}.roof{fill:#d8eef2;fill-opacity:.7;stroke:#4f95a8;stroke-width:2}.level{stroke:#8b9ba0;stroke-width:1;stroke-dasharray:7 5}.water{fill:#8fd2e6;fill-opacity:.75;stroke:#227698;stroke-width:2}.wall{fill:#c9d3d4;stroke:#536b75;stroke-width:1.5}.terrace{fill:#cfe1c5;stroke:#52774b;stroke-width:1.7}.arrival{fill:#d7e8df;stroke:#286b5c;stroke-width:2}
</style>
  <rect width="1920" height="1080" fill="#fff"/><text x="72" y="66" class="title">3F 概念平面圖</text><text x="74" y="98" class="subtitle">PROJECT / MODEL v0.6.2 · L3 +6.88 m · +25.5°／+23.0° 工作值 · SITE-XY</text>
  <g aria-label="SITE-XY 0.5 m grid" data-grid-visible="true" data-minor-spacing="0.5" data-major-spacing="2.5"><line x1="105" y1="286" x2="105" y2="790" class="gridMajor"/><text x="105" y="810" text-anchor="middle" class="tiny">X0</text><line x1="123" y1="286" x2="123" y2="790" class="grid"/><line x1="141" y1="286" x2="141" y2="790" class="grid"/><line x1="159" y1="286" x2="159" y2="790" class="grid"/><line x1="177" y1="286" x2="177" y2="790" class="grid"/><line x1="195" y1="286" x2="195" y2="790" class="gridMajor"/><text x="195" y="810" text-anchor="middle" class="tiny">X2.5</text><line x1="213" y1="286" x2="213" y2="790" class="grid"/><line x1="231" y1="286" x2="231" y2="790" class="grid"/><line x1="249" y1="286" x2="249" y2="790" class="grid"/><line x1="267" y1="286" x2="267" y2="790" class="grid"/><line x1="285" y1="286" x2="285" y2="790" class="gridMajor"/><text x="285" y="810" text-anchor="middle" class="tiny">X5</text><line x1="303" y1="286" x2="303" y2="790" class="grid"/><line x1="321" y1="286" x2="321" y2="790" class="grid"/><line x1="339" y1="286" x2="339" y2="790" class="grid"/><line x1="357" y1="286" x2="357" y2="790" class="grid"/><line x1="375" y1="286" x2="375" y2="790" class="gridMajor"/><text x="375" y="810" text-anchor="middle" class="tiny">X7.5</text><line x1="393" y1="286" x2="393" y2="790" class="grid"/><line x1="411" y1="286" x2="411" y2="790" class="grid"/><line x1="429" y1="286" x2="429" y2="790" class="grid"/><line x1="447" y1="286" x2="447" y2="790" class="grid"/><line x1="465" y1="286" x2="465" y2="790" class="gridMajor"/><text x="465" y="810" text-anchor="middle" class="tiny">X10</text><line x1="483" y1="286" x2="483" y2="790" class="grid"/><line x1="501" y1="286" x2="501" y2="790" class="grid"/><line x1="519" y1="286" x2="519" y2="790" class="grid"/><line x1="537" y1="286" x2="537" y2="790" class="grid"/><line x1="555" y1="286" x2="555" y2="790" class="gridMajor"/><text x="555" y="810" text-anchor="middle" class="tiny">X12.5</text><line x1="573" y1="286" x2="573" y2="790" class="grid"/><line x1="591" y1="286" x2="591" y2="790" class="grid"/><line x1="609" y1="286" x2="609" y2="790" class="grid"/><line x1="627" y1="286" x2="627" y2="790" class="grid"/><line x1="645" y1="286" x2="645" y2="790" class="gridMajor"/><text x="645" y="810" text-anchor="middle" class="tiny">X15</text><line x1="663" y1="286" x2="663" y2="790" class="grid"/><line x1="681" y1="286" x2="681" y2="790" class="grid"/><line x1="699" y1="286" x2="699" y2="790" class="grid"/><line x1="717" y1="286" x2="717" y2="790" class="grid"/><line x1="735" y1="286" x2="735" y2="790" class="gridMajor"/><text x="735" y="810" text-anchor="middle" class="tiny">X17.5</text><line x1="753" y1="286" x2="753" y2="790" class="grid"/><line x1="771" y1="286" x2="771" y2="790" class="grid"/><line x1="789" y1="286" x2="789" y2="790" class="grid"/><line x1="807" y1="286" x2="807" y2="790" class="grid"/><line x1="825" y1="286" x2="825" y2="790" class="gridMajor"/><text x="825" y="810" text-anchor="middle" class="tiny">X20</text><line x1="843" y1="286" x2="843" y2="790" class="grid"/><line x1="861" y1="286" x2="861" y2="790" class="grid"/><line x1="879" y1="286" x2="879" y2="790" class="grid"/><line x1="897" y1="286" x2="897" y2="790" class="grid"/><line x1="915" y1="286" x2="915" y2="790" class="gridMajor"/><text x="915" y="810" text-anchor="middle" class="tiny">X22.5</text><line x1="933" y1="286" x2="933" y2="790" class="grid"/><line x1="951" y1="286" x2="951" y2="790" class="grid"/><line x1="969" y1="286" x2="969" y2="790" class="grid"/><line x1="987" y1="286" x2="987" y2="790" class="grid"/><line x1="1005" y1="286" x2="1005" y2="790" class="gridMajor"/><text x="1005" y="810" text-anchor="middle" class="tiny">X25</text><line x1="1023" y1="286" x2="1023" y2="790" class="grid"/><line x1="1041" y1="286" x2="1041" y2="790" class="grid"/><line x1="1059" y1="286" x2="1059" y2="790" class="grid"/><line x1="1077" y1="286" x2="1077" y2="790" class="grid"/><line x1="1095" y1="286" x2="1095" y2="790" class="gridMajor"/><text x="1095" y="810" text-anchor="middle" class="tiny">X27.5</text><line x1="1113" y1="286" x2="1113" y2="790" class="grid"/><line x1="1131" y1="286" x2="1131" y2="790" class="grid"/><line x1="1149" y1="286" x2="1149" y2="790" class="grid"/><line x1="1167" y1="286" x2="1167" y2="790" class="grid"/><line x1="1185" y1="286" x2="1185" y2="790" class="gridMajor"/><text x="1185" y="810" text-anchor="middle" class="tiny">X30</text><line x1="1203" y1="286" x2="1203" y2="790" class="grid"/><line x1="1221" y1="286" x2="1221" y2="790" class="grid"/><line x1="1239" y1="286" x2="1239" y2="790" class="grid"/><line x1="1257" y1="286" x2="1257" y2="790" class="grid"/><line x1="1275" y1="286" x2="1275" y2="790" class="gridMajor"/><text x="1275" y="810" text-anchor="middle" class="tiny">X32.5</text><line x1="1293" y1="286" x2="1293" y2="790" class="grid"/><line x1="1311" y1="286" x2="1311" y2="790" class="grid"/><line x1="1329" y1="286" x2="1329" y2="790" class="grid"/><line x1="1347" y1="286" x2="1347" y2="790" class="grid"/><line x1="1365" y1="286" x2="1365" y2="790" class="gridMajor"/><text x="1365" y="810" text-anchor="middle" class="tiny">X35</text><line x1="1383" y1="286" x2="1383" y2="790" class="grid"/><line x1="1401" y1="286" x2="1401" y2="790" class="grid"/><line x1="1419" y1="286" x2="1419" y2="790" class="grid"/><line x1="1437" y1="286" x2="1437" y2="790" class="grid"/><line x1="1455" y1="286" x2="1455" y2="790" class="gridMajor"/><text x="1455" y="810" text-anchor="middle" class="tiny">X37.5</text><line x1="1473" y1="286" x2="1473" y2="790" class="grid"/><line x1="1491" y1="286" x2="1491" y2="790" class="grid"/><line x1="1509" y1="286" x2="1509" y2="790" class="grid"/><line x1="1527" y1="286" x2="1527" y2="790" class="grid"/><line x1="1545" y1="286" x2="1545" y2="790" class="gridMajor"/><text x="1545" y="810" text-anchor="middle" class="tiny">X40</text><line x1="1563" y1="286" x2="1563" y2="790" class="grid"/><line x1="1581" y1="286" x2="1581" y2="790" class="grid"/><text x="1581" y="810" text-anchor="middle" class="tiny">X41</text><line x1="105" y1="790" x2="1581" y2="790" class="gridMajor"/><text x="93" y="794" text-anchor="end" class="tiny">Y0</text><line x1="105" y1="772" x2="1581" y2="772" class="grid"/><line x1="105" y1="754" x2="1581" y2="754" class="grid"/><line x1="105" y1="736" x2="1581" y2="736" class="grid"/><line x1="105" y1="718" x2="1581" y2="718" class="grid"/><line x1="105" y1="700" x2="1581" y2="700" class="gridMajor"/><text x="93" y="704" text-anchor="end" class="tiny">Y2.5</text><line x1="105" y1="682" x2="1581" y2="682" class="grid"/><line x1="105" y1="664" x2="1581" y2="664" class="grid"/><line x1="105" y1="646" x2="1581" y2="646" class="grid"/><line x1="105" y1="628" x2="1581" y2="628" class="grid"/><line x1="105" y1="610" x2="1581" y2="610" class="gridMajor"/><text x="93" y="614" text-anchor="end" class="tiny">Y5</text><line x1="105" y1="592" x2="1581" y2="592" class="grid"/><line x1="105" y1="574" x2="1581" y2="574" class="grid"/><line x1="105" y1="556" x2="1581" y2="556" class="grid"/><line x1="105" y1="538" x2="1581" y2="538" class="grid"/><line x1="105" y1="520" x2="1581" y2="520" class="gridMajor"/><text x="93" y="524" text-anchor="end" class="tiny">Y7.5</text><line x1="105" y1="502" x2="1581" y2="502" class="grid"/><line x1="105" y1="484" x2="1581" y2="484" class="grid"/><line x1="105" y1="466" x2="1581" y2="466" class="grid"/><line x1="105" y1="448" x2="1581" y2="448" class="grid"/><line x1="105" y1="430" x2="1581" y2="430" class="gridMajor"/><text x="93" y="434" text-anchor="end" class="tiny">Y10</text><line x1="105" y1="412" x2="1581" y2="412" class="grid"/><line x1="105" y1="394" x2="1581" y2="394" class="grid"/><line x1="105" y1="376" x2="1581" y2="376" class="grid"/><line x1="105" y1="358" x2="1581" y2="358" class="grid"/><line x1="105" y1="340" x2="1581" y2="340" class="gridMajor"/><text x="93" y="344" text-anchor="end" class="tiny">Y12.5</text><line x1="105" y1="322" x2="1581" y2="322" class="grid"/><line x1="105" y1="304" x2="1581" y2="304" class="grid"/><line x1="105" y1="286" x2="1581" y2="286" class="grid"/><text x="93" y="290" text-anchor="end" class="tiny">Y14</text></g><g data-north-plan-direction="lower-right" data-north-rotation="127" transform="translate(1690 190) rotate(127)"><line x1="0" y1="52" x2="0" y2="-38" stroke="#c4553f" stroke-width="4"/><path d="M0 -58L-10 -34H10Z" fill="#c4553f"/><text x="0" y="-70" text-anchor="middle" class="label">N</text></g><text x="1540" y="286" class="tiny">真北＝圖面右下；圖面右＝+X＝西北 307°</text><g data-entity="SITE-01" data-coordinate-system="SITE-XY" data-bounds="0,41,0,14"><rect x="105" y="286" width="1476" height="504" class="reference"/><text x="843" y="542" text-anchor="middle" class="small">1F 基地參照</text></g><g data-entity="L2-PLATE-01" data-coordinate-system="SITE-XY" data-bounds="29,41,0,13.5"><rect x="1149" y="304" width="432" height="486" class="reference"/><text x="1365" y="551" text-anchor="middle" class="small">固定 L2 投影</text></g>
    <polygon points="1488.408,790 1581,790 1581,595.8879999999999" class="terrace" data-entity="L3-EXT-01" data-gross-area="6.935"/><text x="1557.6000000000001" y="673" text-anchor="middle" class="tiny">教師／維修專用景觀區</text><text x="1557.6000000000001" y="687.4" text-anchor="middle" class="tiny">淨 3.971 m²／上鎖管制</text>
    <g data-entity="L3-PLATE-01" data-coordinate-system="SITE-XY" data-bounds="29,41,0,13.5"><polygon points="1065.4273820560145,673.3378271864244 1455.3442248951544,859.3186210076078 1664.5726179439857,420.6621728135756 1274.6557751048458,234.68137899239207" class="working"/><text x="1365" y="547" text-anchor="middle" class="label">旋轉 L3 +25.5°</text></g>
    <polygon points="1496.9759999999999,772 1581,772 1581,718 1522.752,718" class="arrival" data-entity="Z-L3-ARRIVAL-01" data-covered="true"/><text x="1546.8" y="749" text-anchor="middle" class="tiny">有頂室內到達翼 2.964 m²</text><line x1="1532.3999999999999" y1="745" x2="1572" y2="745" stroke="#9a4e2d" stroke-width="2.5"/><path d="M1572 745l-10 -5v10z" fill="#9a4e2d"/>
    <line x1="1065.4273820560145" y1="673.3378271864244" x2="1274.6557751048458" y2="234.68137899239207" class="mirror"/><circle cx="1365" cy="547" r="7" fill="#a95c25"/><text x="1375" y="535" class="tiny">支點 X35／Y6.75</text>
    <g class="structure"><rect x="1270" y="358" width="10" height="144"/><rect x="1378" y="520" width="10" height="270"/></g>
    <g><rect x="1293" y="430" width="79.2" height="57.6" class="service"/><circle cx="1329" cy="545.2" r="22" class="service"/><text x="1332.6000000000001" y="394" text-anchor="middle" class="tiny">除濕／熱回收</text><text x="1329" y="549.2" text-anchor="middle" class="tiny">水塔</text></g>
    <rect x="60" y="845" width="1390" height="82" rx="9" class="note"/><text x="82" y="875" class="small">保留旋轉主體 +25.5° 與支點不變，新增固定正交三角擴板 6.935 m²；ST-02 經有頂室內到達翼銜接，戶外區不是唯一通路。</text><text x="82" y="902" class="small">剩餘景觀區淨約 3.971 m²，只限教師與維修人員並設鎖門／告示；不開放學生、訪客、公眾聚集或作主要逃生。</text>
  <g transform="translate(60 962)"><rect width="1800" height="78" class="titleBox"/><line x1="1020" y1="0" x2="1020" y2="78" stroke="#263746"/><line x1="1320" y1="0" x2="1320" y2="78" stroke="#263746"/><line x1="1570" y1="0" x2="1570" y2="78" stroke="#263746"/><text x="20" y="27" class="small">國立臺中教育大學附設實驗國民小學游泳池翻修</text><text x="20" y="58" class="label">3F 概念平面圖</text><text x="1040" y="25" class="tiny">圖號</text><text x="1040" y="55" class="label">DRAW-L3-PLAN</text><text x="1340" y="25" class="tiny">模型／幾何</text><text x="1340" y="55" class="label">0.6.2／GEO-0.6.2</text><text x="1590" y="25" class="tiny">狀態</text><text x="1590" y="55" class="label">概念設計 · 非施工圖</text></g>
  </svg>
