<svg xmlns="http://www.w3.org/2000/svg" width="1920" height="1080" viewBox="0 0 1920 1080" role="img" aria-labelledby="title desc" data-target-version="0.6.3" data-review-revision="A" data-model-base-version="0.6.2" data-model-base-geometry="GEO-0.6.2" data-current-output="false" data-drawing-status="working-review">
  <title id="title">2F 更新版平面檢討圖 A</title>
  <desc id="desc">0.6.3 工作草案，以 v0.6.2 模型為基準；非 current、非施工圖。</desc>
  <style>
  text{font-family:"Noto Sans TC","Microsoft JhengHei",sans-serif;fill:#243642}
  .title{font-size:32px;font-weight:800}.subtitle{font-size:14px;fill:#5a7078}.label{font-size:13px;font-weight:700}.small{font-size:11.5px}.tiny{font-size:9.5px}.micro{font-size:8px}
  .plate{fill:#fbfcfc;stroke:#263746;stroke-width:2.2}.grid{stroke:#d9e1e2;stroke-width:.55}.grid-major{stroke:#aebec2;stroke-width:1}
  .corridor{fill:#dcecef;stroke:#357487;stroke-width:1.6}.male{fill:#eadfcb;stroke:#9a6a2f;stroke-width:1.6}.female{fill:#e5e0ee;stroke:#76598d;stroke-width:1.6}
  .stair-zone{fill:#dbe2e4;stroke:#41565e;stroke-width:1.6}.stair{fill:#c7d0d3;stroke:#263746;stroke-width:1.4}.landing{fill:#b5c1c5;stroke:#263746;stroke-width:1}
  .wall{stroke:#65757b;stroke-width:7;stroke-linecap:square}.glass{stroke:#3d9bb3;stroke-width:7}.window{stroke:#4fa5bb;stroke-width:9}.split{stroke:#65757b;stroke-width:5}
  .shower{fill:#f8fbfa;stroke:#436e70;stroke-width:1.2}.shower-door{stroke:#2e6668;stroke-width:2}.optional{fill:#f2e6ef;stroke:#925b85;stroke-width:1.5;stroke-dasharray:5 3}
  .fixture{fill:#fff;stroke:#536b75;stroke-width:1.2}.basin{fill:#d9edf2;stroke:#367486;stroke-width:1.2}.locker{fill:#cfd8d8;stroke:#64787a;stroke-width:1}
  .counter{fill:#d7c5ab;stroke:#8a6234;stroke-width:1.5}.plant{fill:#bed6b2;stroke:#52774b;stroke-width:1.3}.water{fill:#c9e5ed;stroke:#3b8194;stroke-width:1.3}
  .panel{fill:#f7f9f9;stroke:#aebcc0;stroke-width:1.1}.panel-title{font-size:14px;font-weight:800;fill:#314850}.confirmed-dot{fill:#237c64}.working-dot{fill:#a96f28}.optional-dot{fill:#925b85}
  .dim{stroke:#667980;stroke-width:1;fill:none}.route{stroke:#2f7788;stroke-width:2;fill:none;stroke-dasharray:7 5}.view{stroke:#2d8da5;stroke-width:1.6;fill:none}
  .north{stroke:#c4553f;stroke-width:3.5}.warning{fill:#9b4f34;font-weight:700}.footer{fill:#f4f6f6;stroke:#263746;stroke-width:1.2}
</style>
  <rect width="1920" height="1080" fill="#fff"/>
  <text x="70" y="50" class="title">2F 更新版平面檢討圖 A</text>
  <text x="72" y="80" class="subtitle">TARGET v0.6.3 · MODEL BASE v0.6.2 / GEO-0.6.2 · SITE-XY · WORKING REVIEW · 非 CURRENT · 非施工圖</text>

    <g id="l2-review-plan" data-coordinate-system="SITE-XY">
      <rect x="120" y="134" width="672" height="756" class="plate" />
      <g aria-label="SITE-XY 0.5 metre review grid"><line x1="120" y1="134" x2="120" y2="890" class="grid"/><text x="120" y="909" text-anchor="middle" class="tiny">X29</text><line x1="148" y1="134" x2="148" y2="890" class="grid"/><line x1="176" y1="134" x2="176" y2="890" class="grid-major"/><text x="176" y="909" text-anchor="middle" class="tiny">X30</text><line x1="204" y1="134" x2="204" y2="890" class="grid"/><line x1="232" y1="134" x2="232" y2="890" class="grid"/><line x1="260" y1="134" x2="260" y2="890" class="grid"/><line x1="288" y1="134" x2="288" y2="890" class="grid"/><line x1="316" y1="134" x2="316" y2="890" class="grid-major"/><text x="316" y="909" text-anchor="middle" class="tiny">X32.5</text><line x1="344" y1="134" x2="344" y2="890" class="grid"/><line x1="372" y1="134" x2="372" y2="890" class="grid"/><line x1="400" y1="134" x2="400" y2="890" class="grid"/><line x1="428" y1="134" x2="428" y2="890" class="grid"/><line x1="456" y1="134" x2="456" y2="890" class="grid-major"/><text x="456" y="909" text-anchor="middle" class="tiny">X35</text><line x1="484" y1="134" x2="484" y2="890" class="grid"/><line x1="512" y1="134" x2="512" y2="890" class="grid"/><line x1="540" y1="134" x2="540" y2="890" class="grid"/><line x1="568" y1="134" x2="568" y2="890" class="grid"/><line x1="596" y1="134" x2="596" y2="890" class="grid-major"/><text x="596" y="909" text-anchor="middle" class="tiny">X37.5</text><line x1="624" y1="134" x2="624" y2="890" class="grid"/><line x1="652" y1="134" x2="652" y2="890" class="grid"/><line x1="680" y1="134" x2="680" y2="890" class="grid"/><line x1="708" y1="134" x2="708" y2="890" class="grid"/><line x1="736" y1="134" x2="736" y2="890" class="grid-major"/><text x="736" y="909" text-anchor="middle" class="tiny">X40</text><line x1="764" y1="134" x2="764" y2="890" class="grid"/><line x1="792" y1="134" x2="792" y2="890" class="grid"/><text x="792" y="909" text-anchor="middle" class="tiny">X41</text><line x1="120" y1="890" x2="792" y2="890" class="grid-major"/><text x="110" y="893" text-anchor="end" class="tiny">Y0</text><line x1="120" y1="862" x2="792" y2="862" class="grid"/><line x1="120" y1="834" x2="792" y2="834" class="grid"/><line x1="120" y1="806" x2="792" y2="806" class="grid"/><line x1="120" y1="778" x2="792" y2="778" class="grid"/><line x1="120" y1="750" x2="792" y2="750" class="grid-major"/><text x="110" y="753" text-anchor="end" class="tiny">Y2.5</text><line x1="120" y1="722" x2="792" y2="722" class="grid"/><line x1="120" y1="694" x2="792" y2="694" class="grid"/><line x1="120" y1="666" x2="792" y2="666" class="grid"/><line x1="120" y1="638" x2="792" y2="638" class="grid"/><line x1="120" y1="610" x2="792" y2="610" class="grid-major"/><text x="110" y="613" text-anchor="end" class="tiny">Y5</text><line x1="120" y1="582" x2="792" y2="582" class="grid"/><line x1="120" y1="554" x2="792" y2="554" class="grid"/><line x1="120" y1="526" x2="792" y2="526" class="grid"/><line x1="120" y1="498" x2="792" y2="498" class="grid"/><line x1="120" y1="470" x2="792" y2="470" class="grid-major"/><text x="110" y="473" text-anchor="end" class="tiny">Y7.5</text><line x1="120" y1="442" x2="792" y2="442" class="grid"/><line x1="120" y1="414" x2="792" y2="414" class="grid"/><line x1="120" y1="386" x2="792" y2="386" class="grid"/><line x1="120" y1="358" x2="792" y2="358" class="grid"/><line x1="120" y1="330" x2="792" y2="330" class="grid-major"/><text x="110" y="333" text-anchor="end" class="tiny">Y10</text><line x1="120" y1="302" x2="792" y2="302" class="grid"/><line x1="120" y1="274" x2="792" y2="274" class="grid"/><line x1="120" y1="246" x2="792" y2="246" class="grid"/><line x1="120" y1="218" x2="792" y2="218" class="grid"/><line x1="120" y1="190" x2="792" y2="190" class="grid-major"/><text x="110" y="193" text-anchor="end" class="tiny">Y12.5</text><line x1="120" y1="162" x2="792" y2="162" class="grid"/><line x1="120" y1="134" x2="792" y2="134" class="grid"/><text x="110" y="137" text-anchor="end" class="tiny">Y13.5</text></g>
      <polygon points="120,890 316,890 316,750 288,750 288,134 120,134" class="corridor" data-zone="L2-CIRCULATION-REVIEW"/>
      <rect x="316" y="750" width="476" height="140" class="stair-zone" data-zone="L2-STAIR-ZONE-REVIEW"/>
      <rect x="288" y="442" width="504" height="308" class="male" data-zone="L2-MALE-REVIEW"/>
      <rect x="288" y="134" width="504" height="308" class="female" data-zone="L2-FEMALE-REVIEW"/>
      <rect x="78" y="162" width="42" height="588" fill="#bfe4ef" fill-opacity=".55" stroke="#4a9bb0" stroke-dasharray="6 4"/>
      <text x="98.72" y="458.8" text-anchor="middle" class="tiny" transform="rotate(-90 98.72 458.8)">泳池挑高參照</text>

      <line x1="120" y1="890" x2="792" y2="890" class="glass" data-wall-finish="large-glass"/>
      <text x="456" y="926" text-anchor="middle" class="small">Y0 大面玻璃：延續 ST-01 → ST-02 的垂直動線層次</text>
      <line x1="316" y1="750" x2="792" y2="750" class="wall" data-wall-finish="fair-faced-concrete"/>
      <text x="554" y="740" text-anchor="middle" class="tiny">Y2.5 清水模分隔牆：樓梯區／更衣區</text>
      <line x1="120" y1="738.8" x2="120" y2="162" class="window" data-window-use="pool-observation"/>
      <text x="105" y="442" text-anchor="middle" class="tiny" transform="rotate(-90 105 442)">X29 觀景窗</text>

      <line x1="288" y1="750" x2="288" y2="514.8" class="wall"/>
      <line x1="288" y1="458.8" x2="288" y2="206.8" class="wall"/>
      <line x1="288" y1="150.8" x2="288" y2="134" class="wall"/>
      <line x1="288" y1="442" x2="792" y2="442" class="split"/>
      <g data-entry="male" data-clear-width="1" data-door-leaf="false"><line x1="288" y1="514.8" x2="288" y2="458.8" stroke="#fff" stroke-width="8"/><text x="277.92" y="486.8" text-anchor="end" class="tiny">男 1.00 m 無門片</text></g>
      <g data-entry="female" data-clear-width="1" data-door-leaf="false"><line x1="288" y1="206.8" x2="288" y2="150.8" stroke="#fff" stroke-width="8"/><text x="277.92" y="178.8" text-anchor="end" class="tiny">女 1.00 m 無門片</text></g>

      <g data-entity="ST-02-REVIEW" data-stair-zone="32.5,41,0,2.5" data-clear-band="32.5,41,0.5,2"><rect x="316" y="778" width="476" height="84" class="stair" /><line x1="331.4" y1="778" x2="331.4" y2="862" stroke="#43545b" stroke-width="1"/><line x1="569.4" y1="778" x2="569.4" y2="862" stroke="#43545b" stroke-width="1"/><line x1="346.8" y1="778" x2="346.8" y2="862" stroke="#43545b" stroke-width="1"/><line x1="584.8" y1="778" x2="584.8" y2="862" stroke="#43545b" stroke-width="1"/><line x1="362.2" y1="778" x2="362.2" y2="862" stroke="#43545b" stroke-width="1"/><line x1="600.2" y1="778" x2="600.2" y2="862" stroke="#43545b" stroke-width="1"/><line x1="377.6" y1="778" x2="377.6" y2="862" stroke="#43545b" stroke-width="1"/><line x1="615.6" y1="778" x2="615.6" y2="862" stroke="#43545b" stroke-width="1"/><line x1="393" y1="778" x2="393" y2="862" stroke="#43545b" stroke-width="1"/><line x1="631" y1="778" x2="631" y2="862" stroke="#43545b" stroke-width="1"/><line x1="408.4" y1="778" x2="408.4" y2="862" stroke="#43545b" stroke-width="1"/><line x1="646.4" y1="778" x2="646.4" y2="862" stroke="#43545b" stroke-width="1"/><line x1="423.8" y1="778" x2="423.8" y2="862" stroke="#43545b" stroke-width="1"/><line x1="661.8" y1="778" x2="661.8" y2="862" stroke="#43545b" stroke-width="1"/><line x1="439.2" y1="778" x2="439.2" y2="862" stroke="#43545b" stroke-width="1"/><line x1="677.2" y1="778" x2="677.2" y2="862" stroke="#43545b" stroke-width="1"/><line x1="454.6" y1="778" x2="454.6" y2="862" stroke="#43545b" stroke-width="1"/><line x1="692.6" y1="778" x2="692.6" y2="862" stroke="#43545b" stroke-width="1"/><line x1="470" y1="778" x2="470" y2="862" stroke="#43545b" stroke-width="1"/><line x1="708" y1="778" x2="708" y2="862" stroke="#43545b" stroke-width="1"/><rect x="470" y="778" width="84" height="84" class="landing" /><rect x="708" y="778" width="84" height="84" class="landing" /><line x1="344" y1="820" x2="755.6" y2="820" stroke="#9a4e2d" stroke-width="3"/><path d="M755.6 820l-13 -7v14z" fill="#9a4e2d"/><text x="554" y="768.48" text-anchor="middle" class="tiny">ST-02：1.50 m 淨寬置中／X32.5 起步 → +X</text></g>
      <g data-shower="M-01" data-inclusive-size="1.2x1.2"><rect x="444.8" y="680" width="67.2" height="67.2" class="shower" /><line x1="468.32" y1="680" x2="488.48" y2="680" stroke="#fff" stroke-width="3.5"/><line x1="468.32" y1="680" x2="485.12" y2="664.32" class="shower-door"/><text x="478.4" y="716.6" text-anchor="middle" class="micro">M-01</text></g><g data-shower="M-02" data-inclusive-size="1.2x1.2"><rect x="512" y="680" width="67.2" height="67.2" class="shower" /><line x1="535.52" y1="680" x2="555.68" y2="680" stroke="#fff" stroke-width="3.5"/><line x1="535.52" y1="680" x2="552.32" y2="664.32" class="shower-door"/><text x="545.6" y="716.6" text-anchor="middle" class="micro">M-02</text></g><g data-shower="M-03" data-inclusive-size="1.2x1.2"><rect x="579.2" y="680" width="67.2" height="67.2" class="shower" /><line x1="602.72" y1="680" x2="622.88" y2="680" stroke="#fff" stroke-width="3.5"/><line x1="602.72" y1="680" x2="619.52" y2="664.32" class="shower-door"/><text x="612.8" y="716.6" text-anchor="middle" class="micro">M-03</text></g><g data-shower="M-04" data-inclusive-size="1.2x1.2"><rect x="646.4" y="680" width="67.2" height="67.2" class="shower" /><line x1="669.92" y1="680" x2="690.08" y2="680" stroke="#fff" stroke-width="3.5"/><line x1="669.92" y1="680" x2="686.72" y2="664.32" class="shower-door"/><text x="680" y="716.6" text-anchor="middle" class="micro">M-04</text></g><g data-shower="M-05" data-inclusive-size="1.2x1.2"><rect x="713.6" y="680" width="67.2" height="67.2" class="shower" /><line x1="737.12" y1="680" x2="757.28" y2="680" stroke="#fff" stroke-width="3.5"/><line x1="737.12" y1="680" x2="753.92" y2="664.32" class="shower-door"/><text x="747.2" y="716.6" text-anchor="middle" class="micro">M-05</text></g><g data-shower="M-06" data-inclusive-size="1.2x1.2"><rect x="444.8" y="562.4" width="67.2" height="67.2" class="shower" /><line x1="468.32" y1="629.6" x2="488.48" y2="629.6" stroke="#fff" stroke-width="3.5"/><line x1="468.32" y1="629.6" x2="485.12" y2="645.28" class="shower-door"/><text x="478.4" y="599" text-anchor="middle" class="micro">M-06</text></g><g data-shower="M-07" data-inclusive-size="1.2x1.2"><rect x="512" y="562.4" width="67.2" height="67.2" class="shower" /><line x1="535.52" y1="629.6" x2="555.68" y2="629.6" stroke="#fff" stroke-width="3.5"/><line x1="535.52" y1="629.6" x2="552.32" y2="645.28" class="shower-door"/><text x="545.6" y="599" text-anchor="middle" class="micro">M-07</text></g><g data-shower="M-08" data-inclusive-size="1.2x1.2"><rect x="579.2" y="562.4" width="67.2" height="67.2" class="shower" /><line x1="602.72" y1="629.6" x2="622.88" y2="629.6" stroke="#fff" stroke-width="3.5"/><line x1="602.72" y1="629.6" x2="619.52" y2="645.28" class="shower-door"/><text x="612.8" y="599" text-anchor="middle" class="micro">M-08</text></g><g data-shower="M-09" data-inclusive-size="1.2x1.2"><rect x="646.4" y="562.4" width="67.2" height="67.2" class="shower" /><line x1="669.92" y1="629.6" x2="690.08" y2="629.6" stroke="#fff" stroke-width="3.5"/><line x1="669.92" y1="629.6" x2="686.72" y2="645.28" class="shower-door"/><text x="680" y="599" text-anchor="middle" class="micro">M-09</text></g><g data-shower="M-10" data-inclusive-size="1.2x1.2"><rect x="713.6" y="562.4" width="67.2" height="67.2" class="shower" /><line x1="737.12" y1="629.6" x2="757.28" y2="629.6" stroke="#fff" stroke-width="3.5"/><line x1="737.12" y1="629.6" x2="753.92" y2="645.28" class="shower-door"/><text x="747.2" y="599" text-anchor="middle" class="micro">M-10</text></g><g data-shower="M-11" data-inclusive-size="1.2x1.2"><rect x="444.8" y="444.8" width="67.2" height="67.2" class="shower" /><line x1="468.32" y1="512" x2="488.48" y2="512" stroke="#fff" stroke-width="3.5"/><line x1="468.32" y1="512" x2="485.12" y2="527.68" class="shower-door"/><text x="478.4" y="481.4" text-anchor="middle" class="micro">M-11</text></g><g data-shower="M-12" data-inclusive-size="1.2x1.2"><rect x="512" y="444.8" width="67.2" height="67.2" class="shower" /><line x1="535.52" y1="512" x2="555.68" y2="512" stroke="#fff" stroke-width="3.5"/><line x1="535.52" y1="512" x2="552.32" y2="527.68" class="shower-door"/><text x="545.6" y="481.4" text-anchor="middle" class="micro">M-12</text></g><g data-shower="M-13" data-inclusive-size="1.2x1.2"><rect x="579.2" y="444.8" width="67.2" height="67.2" class="shower" /><line x1="602.72" y1="512" x2="622.88" y2="512" stroke="#fff" stroke-width="3.5"/><line x1="602.72" y1="512" x2="619.52" y2="527.68" class="shower-door"/><text x="612.8" y="481.4" text-anchor="middle" class="micro">M-13</text></g><g data-shower="M-14" data-inclusive-size="1.2x1.2"><rect x="646.4" y="444.8" width="67.2" height="67.2" class="shower" /><line x1="669.92" y1="512" x2="690.08" y2="512" stroke="#fff" stroke-width="3.5"/><line x1="669.92" y1="512" x2="686.72" y2="527.68" class="shower-door"/><text x="680" y="481.4" text-anchor="middle" class="micro">M-14</text></g><g data-shower="M-15" data-inclusive-size="1.2x1.2"><rect x="713.6" y="444.8" width="67.2" height="67.2" class="shower" /><line x1="737.12" y1="512" x2="757.28" y2="512" stroke="#fff" stroke-width="3.5"/><line x1="737.12" y1="512" x2="753.92" y2="527.68" class="shower-door"/><text x="747.2" y="481.4" text-anchor="middle" class="micro">M-15</text></g>
      <g data-shower="F-01" data-inclusive-size="1.2x1.2"><rect x="444.8" y="372" width="67.2" height="67.2" class="shower" /><line x1="468.32" y1="372" x2="488.48" y2="372" stroke="#fff" stroke-width="3.5"/><line x1="468.32" y1="372" x2="485.12" y2="356.32" class="shower-door"/><text x="478.4" y="408.6" text-anchor="middle" class="micro">F-01</text></g><g data-shower="F-02" data-inclusive-size="1.2x1.2"><rect x="512" y="372" width="67.2" height="67.2" class="shower" /><line x1="535.52" y1="372" x2="555.68" y2="372" stroke="#fff" stroke-width="3.5"/><line x1="535.52" y1="372" x2="552.32" y2="356.32" class="shower-door"/><text x="545.6" y="408.6" text-anchor="middle" class="micro">F-02</text></g><g data-shower="F-03" data-inclusive-size="1.2x1.2"><rect x="579.2" y="372" width="67.2" height="67.2" class="shower" /><line x1="602.72" y1="372" x2="622.88" y2="372" stroke="#fff" stroke-width="3.5"/><line x1="602.72" y1="372" x2="619.52" y2="356.32" class="shower-door"/><text x="612.8" y="408.6" text-anchor="middle" class="micro">F-03</text></g><g data-shower="F-04" data-inclusive-size="1.2x1.2"><rect x="646.4" y="372" width="67.2" height="67.2" class="shower" /><line x1="669.92" y1="372" x2="690.08" y2="372" stroke="#fff" stroke-width="3.5"/><line x1="669.92" y1="372" x2="686.72" y2="356.32" class="shower-door"/><text x="680" y="408.6" text-anchor="middle" class="micro">F-04</text></g><g data-shower="F-05" data-inclusive-size="1.2x1.2"><rect x="713.6" y="372" width="67.2" height="67.2" class="shower" /><line x1="737.12" y1="372" x2="757.28" y2="372" stroke="#fff" stroke-width="3.5"/><line x1="737.12" y1="372" x2="753.92" y2="356.32" class="shower-door"/><text x="747.2" y="408.6" text-anchor="middle" class="micro">F-05</text></g><g data-shower="F-06" data-inclusive-size="1.2x1.2"><rect x="444.8" y="254.4" width="67.2" height="67.2" class="shower" /><line x1="468.32" y1="321.6" x2="488.48" y2="321.6" stroke="#fff" stroke-width="3.5"/><line x1="468.32" y1="321.6" x2="485.12" y2="337.28" class="shower-door"/><text x="478.4" y="291" text-anchor="middle" class="micro">F-06</text></g><g data-shower="F-07" data-inclusive-size="1.2x1.2"><rect x="512" y="254.4" width="67.2" height="67.2" class="shower" /><line x1="535.52" y1="321.6" x2="555.68" y2="321.6" stroke="#fff" stroke-width="3.5"/><line x1="535.52" y1="321.6" x2="552.32" y2="337.28" class="shower-door"/><text x="545.6" y="291" text-anchor="middle" class="micro">F-07</text></g><g data-shower="F-08" data-inclusive-size="1.2x1.2"><rect x="579.2" y="254.4" width="67.2" height="67.2" class="shower" /><line x1="602.72" y1="321.6" x2="622.88" y2="321.6" stroke="#fff" stroke-width="3.5"/><line x1="602.72" y1="321.6" x2="619.52" y2="337.28" class="shower-door"/><text x="612.8" y="291" text-anchor="middle" class="micro">F-08</text></g><g data-shower="F-09" data-inclusive-size="1.2x1.2"><rect x="646.4" y="254.4" width="67.2" height="67.2" class="shower" /><line x1="669.92" y1="321.6" x2="690.08" y2="321.6" stroke="#fff" stroke-width="3.5"/><line x1="669.92" y1="321.6" x2="686.72" y2="337.28" class="shower-door"/><text x="680" y="291" text-anchor="middle" class="micro">F-09</text></g><g data-shower="F-10" data-inclusive-size="1.2x1.2"><rect x="713.6" y="254.4" width="67.2" height="67.2" class="shower" /><line x1="737.12" y1="321.6" x2="757.28" y2="321.6" stroke="#fff" stroke-width="3.5"/><line x1="737.12" y1="321.6" x2="753.92" y2="337.28" class="shower-door"/><text x="747.2" y="291" text-anchor="middle" class="micro">F-10</text></g><g data-shower="F-11" data-inclusive-size="1.2x1.2"><rect x="444.8" y="136.8" width="67.2" height="67.2" class="shower" /><line x1="468.32" y1="204" x2="488.48" y2="204" stroke="#fff" stroke-width="3.5"/><line x1="468.32" y1="204" x2="485.12" y2="219.68" class="shower-door"/><text x="478.4" y="173.4" text-anchor="middle" class="micro">F-11</text></g><g data-shower="F-12" data-inclusive-size="1.2x1.2"><rect x="512" y="136.8" width="67.2" height="67.2" class="shower" /><line x1="535.52" y1="204" x2="555.68" y2="204" stroke="#fff" stroke-width="3.5"/><line x1="535.52" y1="204" x2="552.32" y2="219.68" class="shower-door"/><text x="545.6" y="173.4" text-anchor="middle" class="micro">F-12</text></g><g data-shower="F-13" data-inclusive-size="1.2x1.2"><rect x="579.2" y="136.8" width="67.2" height="67.2" class="shower" /><line x1="602.72" y1="204" x2="622.88" y2="204" stroke="#fff" stroke-width="3.5"/><line x1="602.72" y1="204" x2="619.52" y2="219.68" class="shower-door"/><text x="612.8" y="173.4" text-anchor="middle" class="micro">F-13</text></g><g data-shower="F-14" data-inclusive-size="1.2x1.2"><rect x="646.4" y="136.8" width="67.2" height="67.2" class="shower" /><line x1="669.92" y1="204" x2="690.08" y2="204" stroke="#fff" stroke-width="3.5"/><line x1="669.92" y1="204" x2="686.72" y2="219.68" class="shower-door"/><text x="680" y="173.4" text-anchor="middle" class="micro">F-14</text></g><g data-shower="F-15" data-inclusive-size="1.2x1.2"><rect x="713.6" y="136.8" width="67.2" height="67.2" class="shower" /><line x1="737.12" y1="204" x2="757.28" y2="204" stroke="#fff" stroke-width="3.5"/><line x1="737.12" y1="204" x2="753.92" y2="219.68" class="shower-door"/><text x="747.2" y="173.4" text-anchor="middle" class="micro">F-15</text></g>
      <g data-optional-support="male" data-status="working-suggestion"><rect x="298.08" y="657.6" width="67.2" height="84" class="optional" /><rect x="321.6" y="684.48" width="21.28" height="34.72" rx="4" class="fixture"/><text x="331.68" y="725.92" text-anchor="middle" class="micro">1 WC 建議</text><g data-optional-basin="male-1"><rect x="292.48" y="598.24" width="29.12" height="29.12" rx="5" class="basin"/><circle cx="307.04" cy="612.8" r="3" fill="#367486"/></g><g data-optional-basin="male-2"><rect x="292.48" y="555.12" width="29.12" height="29.12" rx="5" class="basin"/><circle cx="307.04" cy="569.68" r="3" fill="#367486"/></g><text x="330" y="580.32" text-anchor="middle" class="micro">2 洗手槽建議</text></g>
      <g data-optional-support="female" data-status="working-suggestion"><rect x="298.08" y="349.6" width="67.2" height="84" class="optional" /><rect x="321.6" y="376.48" width="21.28" height="34.72" rx="4" class="fixture"/><text x="331.68" y="417.92" text-anchor="middle" class="micro">1 WC 建議</text><g data-optional-basin="female-1"><rect x="292.48" y="290.24" width="29.12" height="29.12" rx="5" class="basin"/><circle cx="307.04" cy="304.8" r="3" fill="#367486"/></g><g data-optional-basin="female-2"><rect x="292.48" y="247.12" width="29.12" height="29.12" rx="5" class="basin"/><circle cx="307.04" cy="261.68" r="3" fill="#367486"/></g><text x="330" y="272.32" text-anchor="middle" class="micro">2 洗手槽建議</text></g>

      <g aria-label="changing lockers">
        <rect x="420.16" y="640.8" width="19.04" height="86.8" class="locker"/><rect x="420.16" y="453.2" width="19.04" height="86.8" class="locker"/>
        <rect x="420.16" y="327.2" width="19.04" height="86.8" class="locker"/><rect x="420.16" y="142.4" width="19.04" height="86.8" class="locker"/>
        <text x="430.24" y="604.4" text-anchor="middle" class="micro" transform="rotate(-90 430.24 604.4)">置物</text><text x="430.24" y="290.8" text-anchor="middle" class="micro" transform="rotate(-90 430.24 290.8)">置物</text>
      </g>

      <g data-corridor-furniture="standing-only">
        <rect x="132.32" y="192.8" width="34.72" height="201.6" rx="4" class="counter"/>
        <text x="149.68" y="293.6" text-anchor="middle" class="micro" transform="rotate(-90 149.68 293.6)">懸空站立長桌／無椅</text>
        <rect x="210.72" y="674.4" width="34.72" height="40.32" rx="4" class="water"/><text x="228.08" y="699.8" text-anchor="middle" class="micro">飲水機</text>
        <circle cx="178.8" cy="629.6" r="13.44" class="plant"/><circle cx="242.08" cy="551.2" r="13.44" class="plant"/><circle cx="229.2" cy="159.2" r="13.44" class="plant"/>
      </g>
      <path d="M226.4 794.8L226.4 173.2" class="route"/><text x="236.4" y="430.8" class="tiny" transform="rotate(-90 236.4 430.8)">連續面池走道／家具靠邊、不設座椅</text>
      <path d="M145.2 610l-42 0M145.2 475.6l-42 0M145.2 341.2l-42 0" class="view"/>
      <path d="M103.2 610l8 -5v10zM103.2 475.6l8 -5v10zM103.2 341.2l8 -5v10z" fill="#2d8da5"/>

      <rect x="120" y="778" width="112" height="112" fill="none" stroke="#76598d" stroke-width="1.4" stroke-dasharray="6 4" data-reference="ST-01-arrival"/>
      <text x="176" y="834" text-anchor="middle" class="tiny">ST-01 到達／走道起點</text>
      <path d="M232 820L330 820" class="route"/><path d="M330 820l-10 -5v10z" fill="#2f7788"/>

      <text x="393.28" y="590.4" text-anchor="middle" class="label" transform="rotate(-90 393.28 590.4)">男更衣／淋浴 · 15 間</text>
      <text x="393.28" y="282.4" text-anchor="middle" class="label" transform="rotate(-90 393.28 282.4)">女更衣／淋浴 · 15 間</text>
      <text x="367.52" y="484" text-anchor="middle" class="tiny">男乾區</text>
      <text x="367.52" y="176" text-anchor="middle" class="tiny">女乾區</text>

      <g><line x1="120" y1="114.4" x2="288" y2="114.4" class="dim"/><line x1="116" y1="110.4" x2="124" y2="118.4" class="dim"/><line x1="284" y1="110.4" x2="292" y2="118.4" class="dim"/><text x="204" y="107.4" text-anchor="middle" class="tiny">走道 3.00 m</text></g>
      <g><line x1="288" y1="114.4" x2="792" y2="114.4" class="dim"/><line x1="284" y1="110.4" x2="292" y2="118.4" class="dim"/><line x1="788" y1="110.4" x2="796" y2="118.4" class="dim"/><text x="540" y="107.4" text-anchor="middle" class="tiny">更衣／淋浴 9.00 m</text></g>
      <g><line x1="811.6" y1="890" x2="811.6" y2="750" class="dim"/><line x1="807.6" y1="886" x2="815.6" y2="894" class="dim"/><line x1="807.6" y1="746" x2="815.6" y2="754" class="dim"/><text x="856.6" y="823" text-anchor="middle" class="tiny">樓梯區 2.50 m</text></g>
      <line x1="444.8" y1="125.6" x2="512" y2="125.6" class="dim"/><text x="478.4" y="119.6" text-anchor="middle" class="tiny">每間 1.20 m</text>
    </g>

  <g transform="translate(875 112)">
    <rect width="975" height="155" rx="10" class="panel"/>
    <text x="24" y="30" class="panel-title">使用者指定的配置骨架</text>
    <circle cx="28" cy="58" r="5" class="confirmed-dot"/><text x="44" y="63" class="small">ST-02 獨立區 X32.5～41／Y0～2.5；Y2.5 分隔牆，Y0 延續大面玻璃。</text>
    <circle cx="28" cy="84" r="5" class="confirmed-dot"/><text x="44" y="89" class="small">X29～32 面池走道；X29 觀景窗、X32 更衣室牆；站立長桌不配置椅子。</text>
    <circle cx="28" cy="110" r="5" class="confirmed-dot"/><text x="44" y="115" class="small">女上男下；兩個入口均位於 X32 且靠各區上方，淨寬 1.00 m、無門片。</text>
    <circle cx="28" cy="136" r="5" class="confirmed-dot"/><text x="44" y="141" class="small">男女各 15 間淋浴，每間 1.20 × 1.20 m，尺寸包含隔間厚度。</text>
  </g>

  <g transform="translate(875 284)">
    <rect width="975" height="173" rx="10" class="panel"/>
    <text x="24" y="30" class="panel-title">本張圖採用的可逆工作假設</text>
    <circle cx="28" cy="58" r="5" class="working-dot"/><text x="44" y="63" class="small">走道在 ST-01 到達處局部加寬至 X32.5，之後維持 X29～32；形成連續 L 形動線。</text>
    <circle cx="28" cy="84" r="5" class="working-dot"/><text x="44" y="89" class="small">男區 X32～41／Y2.5～8；女區 X32～41／Y8～13.5；每側毛面積 49.5 m²。</text>
    <circle cx="28" cy="110" r="5" class="working-dot"/><text x="44" y="115" class="small">15 間淋浴採 3 排 × 5 間；排間工作走道 0.90 m，西側保留約 2.80 m 乾區。</text>
    <circle cx="28" cy="136" r="5" class="optional-dot"/><text x="44" y="141" class="small">每側試放 1 間一般 WC＋2 座洗手槽；屬空間利用建議，待確認後才納入正式需求。</text>
    <text x="44" y="162" class="tiny">淋浴門向、置物櫃、家具位置與植栽數量均可在不改配置骨架下調整。</text>
  </g>

  <g transform="translate(875 474)">
    <rect width="975" height="167" rx="10" class="panel"/>
    <text x="24" y="30" class="panel-title">概念可行性與必須保留的專業驗證</text>
    <text x="24" y="59" class="small">概念上可行：162 m² 固定 L2 樓板可容納 41.75 m² 走道／到達、21.25 m² 樓梯區，</text>
    <text x="24" y="81" class="small">以及男女各 49.5 m² 更衣淋浴區；圖面沒有擴大 L2 樓板或改動 L3 旋轉角。</text>
    <text x="24" y="109" class="small warning">仍須專業驗證：</text><text x="136" y="109" class="small">ST-02 淨高／避難／結構、Y0 安全玻璃與清水模牆支承、觀景窗耐濕與防火、</text>
    <text x="24" y="131" class="small">更衣隱私、排水防滑、0.90 m 排間通道、WC／洗手槽管道、懸空長桌固定及連續有效通行淨寬。</text>
    <text x="24" y="153" class="tiny">本圖不能作為建築、結構、消防、機電、無障礙、成本或施工核准。</text>
  </g>

  <g transform="translate(875 658)">
    <rect width="975" height="196" rx="10" class="panel"/>
    <text x="24" y="30" class="panel-title">面積與數量快照</text>
    <text x="24" y="58" class="small">走道／到達（L 形）</text><text x="340" y="58" class="label">41.75 m²</text>
    <text x="24" y="84" class="small">獨立樓梯區</text><text x="340" y="84" class="label">21.25 m²</text>
    <text x="24" y="110" class="small">男更衣／淋浴</text><text x="340" y="110" class="label">49.50 m² · 15 showers</text>
    <text x="24" y="136" class="small">女更衣／淋浴</text><text x="340" y="136" class="label">49.50 m² · 15 showers</text>
    <line x1="20" y1="151" x2="520" y2="151" stroke="#b8c4c7"/>
    <text x="24" y="177" class="small">合計</text><text x="340" y="177" class="label">162.00 m²</text>
    <g transform="translate(570 48)">
      <circle cx="5" cy="4" r="5" class="confirmed-dot"/><text x="20" y="9" class="tiny">使用者已指定</text>
      <circle cx="5" cy="36" r="5" class="working-dot"/><text x="20" y="41" class="tiny">本圖工作假設</text>
      <circle cx="5" cy="68" r="5" class="optional-dot"/><text x="20" y="73" class="tiny">待確認的加值配置</text>
      <line x1="0" y1="101" x2="34" y2="101" class="glass"/><text x="45" y="105" class="tiny">玻璃／觀景窗</text>
      <line x1="0" y1="132" x2="34" y2="132" class="wall"/><text x="45" y="136" class="tiny">清水模分隔牆</text>
    </g>
  </g>

  <g transform="translate(875 870)">
    <rect width="975" height="66" rx="10" class="panel"/>
    <rect x="20" y="18" width="200" height="30" fill="#c9d3d4" stroke="#65757b"/><rect x="220" y="18" width="310" height="30" fill="#d8eef2" stroke="#3d9bb3"/><rect x="530" y="18" width="200" height="30" fill="#c9d3d4" stroke="#65757b"/>
    <text x="120" y="39" text-anchor="middle" class="tiny">L1 清水模</text><text x="375" y="39" text-anchor="middle" class="tiny">L2 大面玻璃／動線延伸</text><text x="630" y="39" text-anchor="middle" class="tiny">L3 清水模</text>
    <text x="748" y="39" class="tiny">立面層次意圖；仍須以後續剖面／Viewer 驗證。</text>
  </g>

  <g data-north-plan-direction="lower-right"><g transform="translate(1800 65) rotate(127)"><line x1="0" y1="28" x2="0" y2="-26" class="north"/><path d="M0 -40L-8 -22H8Z" fill="#c4553f"/></g><text x="1822" y="95" text-anchor="middle" class="label">N</text></g>

  <g transform="translate(60 958)">
    <rect width="1800" height="82" class="footer"/>
    <line x1="1000" y1="0" x2="1000" y2="82" stroke="#263746"/><line x1="1300" y1="0" x2="1300" y2="82" stroke="#263746"/><line x1="1570" y1="0" x2="1570" y2="82" stroke="#263746"/>
    <text x="18" y="29" class="small">國立臺中教育大學附設實驗國民小學游泳池翻修</text><text x="18" y="61" class="label">2F 更新版平面檢討圖 A</text>
    <text x="1020" y="27" class="tiny">圖號</text><text x="1020" y="58" class="label">DRAW-L2-PLAN-v0.6.3-REVIEW-A</text>
    <text x="1320" y="27" class="tiny">TARGET／MODEL BASE</text><text x="1320" y="58" class="label">0.6.3／0.6.2 · GEO-0.6.2</text>
    <text x="1590" y="22" class="tiny">狀態</text><text x="1590" y="47" class="small warning">WORKING REVIEW</text><text x="1590" y="67" class="small warning">非 CURRENT · 非施工圖</text>
  </g>
</svg>
