<svg xmlns="http://www.w3.org/2000/svg" width="1920" height="1080" viewBox="0 0 1920 1080" role="img" aria-labelledby="title desc" data-model-version="0.6.0" data-active-geometry="GEO-0.6.0" data-coordinate-system="SITE-XY">
  <title id="title">縱向概念剖面圖 v0.6.0</title><desc id="desc">PROJECT / MODEL v0.6.0 · X／Z 同尺度 · 池畔 +0.30 · L2 +3.30 · L3 +6.88。概念設計，非施工圖。</desc><style>
  text{font-family:"Noto Sans TC","Microsoft JhengHei",sans-serif;fill:#263746}.title{font-size:31px;font-weight:800}.subtitle{font-size:15px;fill:#536b75}.label{font-size:14px;font-weight:700}.small{font-size:12px}.tiny{font-size:10px}.grid{stroke:#cbd7da;stroke-width:.55}.gridMajor{stroke:#9fb2b8;stroke-width:.9}.outline{fill:none;stroke:#263746;stroke-width:2}.reference{fill:#eef2f2;stroke:#97a8ad;stroke-width:1.2;stroke-dasharray:7 5}.pool{fill:#bfe4ef;stroke:#227698;stroke-width:2}.lane{stroke:#f8fbfc;stroke-width:2;stroke-dasharray:8 5}.working{fill:#f1dfbe;stroke:#a96f28;stroke-width:1.6}.confirmed{fill:#d8ece4;stroke:#237c64;stroke-width:1.6}.service{fill:#dbe5e6;stroke:#5b7278;stroke-width:1.6}.chemical{fill:#ead9e8;stroke:#8e5a88;stroke-width:1.6}.deferred{fill:#e4dbed;stroke:#7c5c98;stroke-width:1.5;stroke-dasharray:6 4}.stair{fill:#d7dde0;stroke:#263746;stroke-width:1.6}.structure{fill:#c3793c;fill-opacity:.18;stroke:#a95c25;stroke-width:2.2;stroke-dasharray:8 4}.dim{stroke:#536b75;stroke-width:1;fill:none}.titleBox{fill:#f6f8f8;stroke:#263746;stroke-width:1.2}.note{fill:#f7f8f8;stroke:#a8b6ba;stroke-width:1}.mirror{stroke:#4f8792;stroke-width:7}.roof{fill:#d8eef2;fill-opacity:.7;stroke:#4f95a8;stroke-width:2}.level{stroke:#8b9ba0;stroke-width:1;stroke-dasharray:7 5}.water{fill:#8fd2e6;fill-opacity:.75;stroke:#227698;stroke-width:2}.wall{fill:#c9d3d4;stroke:#536b75;stroke-width:1.5}
</style>
  <rect width="1920" height="1080" fill="#fff"/><text x="72" y="66" class="title">縱向概念剖面圖</text><text x="74" y="98" class="subtitle">PROJECT / MODEL v0.6.0 · X／Z 同尺度 · 池畔 +0.30 · L2 +3.30 · L3 +6.88</text>
  <g><line x1="100" y1="760" x2="1576" y2="760" class="outline"/><line x1="100" y1="756.4" x2="1666" y2="756.4" class="level"/><text x="1673.2" y="760.4" class="tiny">+0.10 m</text><line x1="100" y1="749.2" x2="1666" y2="749.2" class="level"/><text x="1673.2" y="753.2" class="tiny">+0.30 m</text><line x1="100" y1="641.2" x2="1666" y2="641.2" class="level"/><text x="1673.2" y="645.2" class="tiny">+3.30 m</text><line x1="100" y1="512.3199999999999" x2="1666" y2="512.3199999999999" class="level"/><text x="1673.2" y="516.3199999999999" class="tiny">+6.88 m</text></g>
    <g data-entity="POOL-01" data-coordinate-system="SITE-XY" data-bounds="3,28,4,12.5"><path d="M208 752.08L1108 752.08L1108 806.08L208 795.28Z" class="water"/><text x="658" y="774.4" text-anchor="middle" class="label">25 m 泳池 · 左 1.2 m → 右 1.5 m</text></g>
    <g data-entity="RF-GL-01" data-coordinate-system="SITE-XY" data-bounds="0,29,0,14"><path d="M100 616L1144 524.668L1144 520.348L100 611.6800000000001Z" class="roof"/><text x="568" y="567.4" class="label" transform="rotate(-5 568 567.4)">29.0 m 玻璃屋頂 · 5°</text></g>
    <g><rect x="1144" y="641.2" width="432" height="9" class="wall"/><rect x="1061.1999999999998" y="512.3199999999999" width="597.5999999999999" height="9" class="working"/><line x1="1144" y1="512.3199999999999" x2="1088.9880638192353" y2="382.71999999999997" class="mirror"/><text x="1342" y="632.2" class="small">L2 固定更衣層 +3.30</text><text x="1324" y="502.24" class="small">L3 旋轉服務層 +6.88</text><text x="1090" y="436" class="tiny">鏡牆外傾 23.0°</text></g>
    <g data-entity="ST-01" data-coordinate-system="SITE-XY" data-bounds="20.5,29,0.5,2"><polyline points="838,749.2 848.8000000000001,743.8 859.6,738.4 870.4,733 881.1999999999999,727.6 892,722.2 902.8000000000001,716.8 913.6,711.4 924.4,706 935.1999999999999,700.6 1046.8000000000002,695.2 1057.6,689.8 1068.4,684.4 1079.1999999999998,679 1090,673.6 1100.8000000000002,668.2 1111.6,662.8 1122.4,657.4 1133.2,652 1144,646.6" fill="none" stroke="#263746" stroke-width="4"/><line x1="935.1999999999999" y1="695.2" x2="1046.8000000000002" y2="695.2" stroke="#263746" stroke-width="7"/><text x="991" y="682.6" text-anchor="middle" class="tiny">2.70＋3.10＋2.70 m · 20R／18T</text></g>
    <g><rect x="1216" y="641.2" width="162" height="108" class="confirmed"/><rect x="1378" y="641.2" width="126" height="115.2" class="working"/><text x="1297" y="700.6" text-anchor="middle" class="tiny">泳池側廁所 +0.30</text><text x="1441" y="704.2" text-anchor="middle" class="tiny">操場側廁所 +0.10</text><rect x="1504" y="756.4" width="72" height="4" class="deferred"/></g>
    <rect x="60" y="842" width="1320" height="84" rx="9" class="note"/><text x="82" y="873" class="small">剖面採 X／Z 同尺度。ST-01 從池畔 +0.30 m 直接到 L2 +3.30 m；3.10 m 平台的扭轉、振動、淨高與群聚荷重仍待專業驗證。</text><text x="82" y="902" class="small">L3 外挑、屋頂轉接帶、廁所結構／機電淨高、水處理與設備支承均為概念協調結果，非施工核定。</text>
  <g transform="translate(60 962)"><rect width="1800" height="78" class="titleBox"/><line x1="1020" y1="0" x2="1020" y2="78" stroke="#263746"/><line x1="1320" y1="0" x2="1320" y2="78" stroke="#263746"/><line x1="1570" y1="0" x2="1570" y2="78" stroke="#263746"/><text x="20" y="27" class="small">國立臺中教育大學附設實驗國民小學游泳池翻修</text><text x="20" y="58" class="label">縱向概念剖面圖</text><text x="1040" y="25" class="tiny">圖號</text><text x="1040" y="55" class="label">DRAW-LONGITUDINAL-SECTION</text><text x="1340" y="25" class="tiny">模型／幾何</text><text x="1340" y="55" class="label">0.6.0／GEO-0.6.0</text><text x="1590" y="25" class="tiny">狀態</text><text x="1590" y="55" class="label">概念設計 · 非施工圖</text></g>
  </svg>
