<svg xmlns="http://www.w3.org/2000/svg" width="1920" height="1080" viewBox="0 0 1920 1080" role="img" aria-labelledby="title desc" data-model-version="0.6.6" data-active-geometry="GEO-0.6.6" data-coordinate-system="SITE-XY">
  <title id="title">縱向概念剖面圖 v0.6.6</title><desc id="desc">PROJECT / MODEL v0.6.6 · X／Z 同尺度 · 池畔 +0.30 · L2 +3.30 · L3 +6.88。概念設計，非施工圖。</desc><style>
  text{font-family:"Noto Sans TC","Microsoft JhengHei",sans-serif;fill:#263746}.title{font-size:31px;font-weight:800}.subtitle{font-size:15px;fill:#536b75}.label{font-size:14px;font-weight:700}.small{font-size:12px}.tiny{font-size:10px}.grid{stroke:#cbd7da;stroke-width:.55}.gridMajor{stroke:#9fb2b8;stroke-width:.9}.outline{fill:none;stroke:#263746;stroke-width:2}.reference{fill:#eef2f2;stroke:#97a8ad;stroke-width:1.2;stroke-dasharray:7 5}.pool{fill:#bfe4ef;stroke:#227698;stroke-width:2}.lane{stroke:#f8fbfc;stroke-width:2;stroke-dasharray:8 5}.working{fill:#f1dfbe;stroke:#a96f28;stroke-width:1.6}.confirmed{fill:#d8ece4;stroke:#237c64;stroke-width:1.6}.service{fill:#dbe5e6;stroke:#5b7278;stroke-width:1.6}.chemical{fill:#ead9e8;stroke:#8e5a88;stroke-width:1.6}.deferred{fill:#e4dbed;stroke:#7c5c98;stroke-width:1.5;stroke-dasharray:6 4}.stair{fill:#d7dde0;stroke:#263746;stroke-width:1.6}.structure{fill:#c3793c;fill-opacity:.18;stroke:#a95c25;stroke-width:2.2;stroke-dasharray:8 4}.dim{stroke:#536b75;stroke-width:1;fill:none}.titleBox{fill:#f6f8f8;stroke:#263746;stroke-width:1.2}.note{fill:#f7f8f8;stroke:#a8b6ba;stroke-width:1}.mirror{stroke:#4f8792;stroke-width:7}.roof{fill:#d8eef2;fill-opacity:.28;stroke:#4f95a8;stroke-width:2}.level{stroke:#8b9ba0;stroke-width:1;stroke-dasharray:7 5}.water{fill:#8fd2e6;fill-opacity:.75;stroke:#227698;stroke-width:2}.wall{fill:#c9d3d4;stroke:#536b75;stroke-width:1.5}.terrace{fill:#cfe1c5;stroke:#52774b;stroke-width:1.7}.arrival{fill:#d7e8df;stroke:#286b5c;stroke-width:2}.corridor{fill:#dcecef;stroke:#357487;stroke-width:1.6}.female{fill:#e5e0ee;stroke:#76598d;stroke-width:1.6}.glassLine{stroke:#3d9bb3;stroke-width:7}.wallLine{stroke:#65757b;stroke-width:6}.windowLine{stroke:#4fa5bb;stroke-width:8}.locker{fill:#cfd8d8;stroke:#64787a;stroke-width:1}.counter{fill:#d7c5ab;stroke:#8a6234;stroke-width:1.5}.plant{fill:#bed6b2;stroke:#52774b;stroke-width:1.3}.pv{fill:#8fd9ee;fill-opacity:.24;stroke:#3d91b4;stroke-width:1.8}.pvGrid{stroke:#4f9fc1;stroke-width:.8;stroke-opacity:.82}.projected{fill:none;stroke:#9b6a43;stroke-width:1.5;stroke-dasharray:6 4}.rain{fill:#d9e5ef;fill-opacity:.55;stroke:#6f6a96;stroke-width:1.5;stroke-dasharray:5 3}
</style>
  <rect width="1920" height="1080" fill="#fff"/><text x="72" y="66" class="title">縱向概念剖面圖</text><text x="74" y="98" class="subtitle">PROJECT / MODEL v0.6.6 · X／Z 同尺度 · 池畔 +0.30 · L2 +3.30 · L3 +6.88</text>
  <g aria-label="SITE-XZ 0.5 m grid" data-grid-visible="true" data-coordinate-system="SITE-XZ" data-minor-spacing="0.5" data-major-spacing="2.5"><line x1="100" y1="364" x2="100" y2="823" class="gridMajor"/><text x="100" y="841" text-anchor="middle" class="tiny">X0</text><line x1="118" y1="364" x2="118" y2="823" class="grid"/><line x1="136" y1="364" x2="136" y2="823" class="grid"/><line x1="154" y1="364" x2="154" y2="823" class="grid"/><line x1="172" y1="364" x2="172" y2="823" class="grid"/><line x1="190" y1="364" x2="190" y2="823" class="gridMajor"/><text x="190" y="841" text-anchor="middle" class="tiny">X2.5</text><line x1="208" y1="364" x2="208" y2="823" class="grid"/><line x1="226" y1="364" x2="226" y2="823" class="grid"/><line x1="244" y1="364" x2="244" y2="823" class="grid"/><line x1="262" y1="364" x2="262" y2="823" class="grid"/><line x1="280" y1="364" x2="280" y2="823" class="gridMajor"/><text x="280" y="841" text-anchor="middle" class="tiny">X5</text><line x1="298" y1="364" x2="298" y2="823" class="grid"/><line x1="316" y1="364" x2="316" y2="823" class="grid"/><line x1="334" y1="364" x2="334" y2="823" class="grid"/><line x1="352" y1="364" x2="352" y2="823" class="grid"/><line x1="370" y1="364" x2="370" y2="823" class="gridMajor"/><text x="370" y="841" text-anchor="middle" class="tiny">X7.5</text><line x1="388" y1="364" x2="388" y2="823" class="grid"/><line x1="406" y1="364" x2="406" y2="823" class="grid"/><line x1="424" y1="364" x2="424" y2="823" class="grid"/><line x1="442" y1="364" x2="442" y2="823" class="grid"/><line x1="460" y1="364" x2="460" y2="823" class="gridMajor"/><text x="460" y="841" text-anchor="middle" class="tiny">X10</text><line x1="478" y1="364" x2="478" y2="823" class="grid"/><line x1="496" y1="364" x2="496" y2="823" class="grid"/><line x1="514" y1="364" x2="514" y2="823" class="grid"/><line x1="532" y1="364" x2="532" y2="823" class="grid"/><line x1="550" y1="364" x2="550" y2="823" class="gridMajor"/><text x="550" y="841" text-anchor="middle" class="tiny">X12.5</text><line x1="568" y1="364" x2="568" y2="823" class="grid"/><line x1="586" y1="364" x2="586" y2="823" class="grid"/><line x1="604" y1="364" x2="604" y2="823" class="grid"/><line x1="622" y1="364" x2="622" y2="823" class="grid"/><line x1="640" y1="364" x2="640" y2="823" class="gridMajor"/><text x="640" y="841" text-anchor="middle" class="tiny">X15</text><line x1="658" y1="364" x2="658" y2="823" class="grid"/><line x1="676" y1="364" x2="676" y2="823" class="grid"/><line x1="694" y1="364" x2="694" y2="823" class="grid"/><line x1="712" y1="364" x2="712" y2="823" class="grid"/><line x1="730" y1="364" x2="730" y2="823" class="gridMajor"/><text x="730" y="841" text-anchor="middle" class="tiny">X17.5</text><line x1="748" y1="364" x2="748" y2="823" class="grid"/><line x1="766" y1="364" x2="766" y2="823" class="grid"/><line x1="784" y1="364" x2="784" y2="823" class="grid"/><line x1="802" y1="364" x2="802" y2="823" class="grid"/><line x1="820" y1="364" x2="820" y2="823" class="gridMajor"/><text x="820" y="841" text-anchor="middle" class="tiny">X20</text><line x1="838" y1="364" x2="838" y2="823" class="grid"/><line x1="856" y1="364" x2="856" y2="823" class="grid"/><line x1="874" y1="364" x2="874" y2="823" class="grid"/><line x1="892" y1="364" x2="892" y2="823" class="grid"/><line x1="910" y1="364" x2="910" y2="823" class="gridMajor"/><text x="910" y="841" text-anchor="middle" class="tiny">X22.5</text><line x1="928" y1="364" x2="928" y2="823" class="grid"/><line x1="946" y1="364" x2="946" y2="823" class="grid"/><line x1="964" y1="364" x2="964" y2="823" class="grid"/><line x1="982" y1="364" x2="982" y2="823" class="grid"/><line x1="1000" y1="364" x2="1000" y2="823" class="gridMajor"/><text x="1000" y="841" text-anchor="middle" class="tiny">X25</text><line x1="1018" y1="364" x2="1018" y2="823" class="grid"/><line x1="1036" y1="364" x2="1036" y2="823" class="grid"/><line x1="1054" y1="364" x2="1054" y2="823" class="grid"/><line x1="1072" y1="364" x2="1072" y2="823" class="grid"/><line x1="1090" y1="364" x2="1090" y2="823" class="gridMajor"/><text x="1090" y="841" text-anchor="middle" class="tiny">X27.5</text><line x1="1108" y1="364" x2="1108" y2="823" class="grid"/><line x1="1126" y1="364" x2="1126" y2="823" class="grid"/><line x1="1144" y1="364" x2="1144" y2="823" class="grid"/><line x1="1162" y1="364" x2="1162" y2="823" class="grid"/><line x1="1180" y1="364" x2="1180" y2="823" class="gridMajor"/><text x="1180" y="841" text-anchor="middle" class="tiny">X30</text><line x1="1198" y1="364" x2="1198" y2="823" class="grid"/><line x1="1216" y1="364" x2="1216" y2="823" class="grid"/><line x1="1234" y1="364" x2="1234" y2="823" class="grid"/><line x1="1252" y1="364" x2="1252" y2="823" class="grid"/><line x1="1270" y1="364" x2="1270" y2="823" class="gridMajor"/><text x="1270" y="841" text-anchor="middle" class="tiny">X32.5</text><line x1="1288" y1="364" x2="1288" y2="823" class="grid"/><line x1="1306" y1="364" x2="1306" y2="823" class="grid"/><line x1="1324" y1="364" x2="1324" y2="823" class="grid"/><line x1="1342" y1="364" x2="1342" y2="823" class="grid"/><line x1="1360" y1="364" x2="1360" y2="823" class="gridMajor"/><text x="1360" y="841" text-anchor="middle" class="tiny">X35</text><line x1="1378" y1="364" x2="1378" y2="823" class="grid"/><line x1="1396" y1="364" x2="1396" y2="823" class="grid"/><line x1="1414" y1="364" x2="1414" y2="823" class="grid"/><line x1="1432" y1="364" x2="1432" y2="823" class="grid"/><line x1="1450" y1="364" x2="1450" y2="823" class="gridMajor"/><text x="1450" y="841" text-anchor="middle" class="tiny">X37.5</text><line x1="1468" y1="364" x2="1468" y2="823" class="grid"/><line x1="1486" y1="364" x2="1486" y2="823" class="grid"/><line x1="1504" y1="364" x2="1504" y2="823" class="grid"/><line x1="1522" y1="364" x2="1522" y2="823" class="grid"/><line x1="1540" y1="364" x2="1540" y2="823" class="gridMajor"/><text x="1540" y="841" text-anchor="middle" class="tiny">X40</text><line x1="1558" y1="364" x2="1558" y2="823" class="grid"/><line x1="1576" y1="364" x2="1576" y2="823" class="grid"/><line x1="1594" y1="364" x2="1594" y2="823" class="grid"/><line x1="1612" y1="364" x2="1612" y2="823" class="grid"/><line x1="1630" y1="364" x2="1630" y2="823" class="gridMajor"/><text x="1630" y="841" text-anchor="middle" class="tiny">X42.5</text><line x1="100" y1="814" x2="1630" y2="814" class="grid"/><line x1="100" y1="796" x2="1630" y2="796" class="grid"/><line x1="100" y1="778" x2="1630" y2="778" class="grid"/><line x1="100" y1="760" x2="1630" y2="760" class="gridMajor"/><text x="88" y="764" text-anchor="end" class="tiny">Z+0</text><line x1="100" y1="742" x2="1630" y2="742" class="grid"/><line x1="100" y1="724" x2="1630" y2="724" class="grid"/><line x1="100" y1="706" x2="1630" y2="706" class="grid"/><line x1="100" y1="688" x2="1630" y2="688" class="grid"/><line x1="100" y1="670" x2="1630" y2="670" class="gridMajor"/><text x="88" y="674" text-anchor="end" class="tiny">Z+2.5</text><line x1="100" y1="652" x2="1630" y2="652" class="grid"/><line x1="100" y1="634" x2="1630" y2="634" class="grid"/><line x1="100" y1="616" x2="1630" y2="616" class="grid"/><line x1="100" y1="598" x2="1630" y2="598" class="grid"/><line x1="100" y1="580" x2="1630" y2="580" class="gridMajor"/><text x="88" y="584" text-anchor="end" class="tiny">Z+5</text><line x1="100" y1="562" x2="1630" y2="562" class="grid"/><line x1="100" y1="544" x2="1630" y2="544" class="grid"/><line x1="100" y1="526" x2="1630" y2="526" class="grid"/><line x1="100" y1="508" x2="1630" y2="508" class="grid"/><line x1="100" y1="490" x2="1630" y2="490" class="gridMajor"/><text x="88" y="494" text-anchor="end" class="tiny">Z+7.5</text><line x1="100" y1="472" x2="1630" y2="472" class="grid"/><line x1="100" y1="454" x2="1630" y2="454" class="grid"/><line x1="100" y1="436" x2="1630" y2="436" class="grid"/><line x1="100" y1="418" x2="1630" y2="418" class="grid"/><line x1="100" y1="400" x2="1630" y2="400" class="gridMajor"/><text x="88" y="404" text-anchor="end" class="tiny">Z+10</text><line x1="100" y1="382" x2="1630" y2="382" class="grid"/><line x1="100" y1="364" x2="1630" y2="364" class="grid"/></g><g><line x1="100" y1="760" x2="1576" y2="760" class="outline"/><line x1="100" y1="756.4" x2="1666" y2="756.4" class="level"/><text x="1673.2" y="760.4" class="tiny">+0.10 m</text><line x1="100" y1="749.2" x2="1666" y2="749.2" class="level"/><text x="1673.2" y="753.2" class="tiny">+0.30 m</text><line x1="100" y1="641.2" x2="1666" y2="641.2" class="level"/><text x="1673.2" y="645.2" class="tiny">+3.30 m</text><line x1="100" y1="512.3199999999999" x2="1666" y2="512.3199999999999" class="level"/><text x="1673.2" y="516.3199999999999" class="tiny">+6.88 m</text><line x1="100" y1="382.71999999999997" x2="1666" y2="382.71999999999997" class="level"/><text x="1673.2" y="386.71999999999997" class="tiny">+10.48 m</text></g>
    <g data-entity="POOL-01" data-coordinate-system="SITE-XY" data-bounds="3,28,4,12.5"><path d="M208 752.08L1108 752.08L1108 806.08L208 795.28Z" class="water"/><text x="658" y="774.4" text-anchor="middle" class="label">25 m 泳池 · 左 1.2 m → 右 1.5 m</text></g>
    <g data-entity="RF-GL-01" data-coordinate-system="SITE-XY" data-bounds="0,29,0,14"><path d="M100 616L1144 524.668L1144 520.348L100 611.6800000000001Z" class="roof"/><text x="568" y="567.4" class="label" transform="rotate(-5 568 567.4)">29.0 m 玻璃屋頂 · 5°</text></g>
    <g data-entity="RF-L1-WEST-EAVE-01"><path d="M100 611.3199999999999L118 609.88" class="glassLine"/><text x="101.8" y="596.2" class="tiny">X0～0.5 突出玻璃屋簷</text></g>
    <g data-entity="RW-WEST-01"><rect x="102.88" y="753.52" width="12.24" height="6.4799999999999995" class="rain"/><path d="M109 753.52L109 779.8" class="projected"/><text x="122.32" y="772.6" class="tiny">雨水回收</text></g>
    <g data-entity="W-L1-X0.5-01"><line x1="118" y1="749.2" x2="118" y2="614.56" class="glassLine"/><text x="122.32" y="680.8" class="tiny">L1 西端牆 X0.5</text></g>
    <g data-entity="EN-01" data-projection="elevation-not-cut"><rect x="136" y="662.08" width="72" height="87.12000000000002" class="projected"/><text x="172" y="708.88" text-anchor="middle" class="tiny">EN-01 投影 X1～X3</text></g>
    <g data-entity="RF-L1-REAR-CANOPY-01" data-projection-y="14-14.5"><line x1="1216" y1="636.88" x2="1504" y2="636.88" class="projected"/><text x="1360" y="632.2" text-anchor="middle" class="tiny">後側透明玻璃突出屋簷（投影）</text></g>
    <g><rect x="1144" y="641.2" width="432" height="9" class="wall"/><rect x="1144" y="512.3199999999999" width="432" height="8.64" class="wall" data-entity="CLG-L2-01" data-continuous="true"/><line x1="1144" y1="641.2" x2="1144" y2="512.3199999999999" class="wallLine" data-entity="W-L2-X29-01"/><line x1="1576" y1="641.2" x2="1576" y2="512.3199999999999" class="wallLine" data-entity="W-L2-X41-01"/><rect x="1061.1999999999998" y="512.3199999999999" width="597.5999999999999" height="9" class="working"/><rect x="1088.9920000000002" y="374.08" width="487.0079999999999" height="8.64" class="wall" data-entity="RF-L3-01" data-complete-roof="true"/><line x1="1144" y1="512.3199999999999" x2="1088.9880638192353" y2="382.71999999999997" class="mirror"/><line x1="1576" y1="512.3199999999999" x2="1576" y2="382.71999999999997" class="wallLine" data-entity="W-L3-X41-01"/><text x="1342" y="632.2" class="small">L2 固定更衣層 +3.30／完整天花 +6.88</text><text x="1324" y="502.24" class="small">L3 旋轉服務層 +6.88</text><text x="1324" y="410.71999999999997" class="small">L3 完整屋頂連接鏡牆上緣</text><text x="1090" y="436" class="tiny">鏡牆外傾 23.0°</text></g>
    <g data-entity="ST-01" data-coordinate-system="SITE-XY" data-bounds="20.5,29,0.5,2" data-design-intent="suspended-floating-stair"><line x1="843.4" y1="748.48" x2="929.8000000000001" y2="700.6" stroke="#263746" stroke-width="8"/><line x1="935.1999999999999" y1="698.08" x2="1046.8000000000002" y2="698.08" stroke="#263746" stroke-width="8"/><line x1="1052.1999999999998" y1="698.08" x2="1138.6000000000001" y2="646.6" stroke="#263746" stroke-width="8"/><polyline points="838,749.2 848.8000000000001,743.8 859.6,738.4 870.4,733 881.1999999999999,727.6 892,722.2 902.8000000000001,716.8 913.6,711.4 924.4,706 935.1999999999999,700.6 1046.8000000000002,695.2 1057.6,689.8 1068.4,684.4 1079.1999999999998,679 1090,673.6 1100.8000000000002,668.2 1111.6,662.8 1122.4,657.4 1133.2,652 1144,646.6" fill="none" stroke="#58676d" stroke-width="3"/><text x="991" y="682.6" text-anchor="middle" class="tiny">懸空薄踏步＋雙連續鋼箱梯梁 · 2.70＋3.10＋2.70 m · 20R／18T</text></g>
    <g data-entity="ST-02" data-axis="+x" data-y-band="0.5,2" data-design-intent="suspended-floating-stair"><line x1="1270" y1="641.2" x2="1369" y2="576.76" stroke="#46555b" stroke-width="7"/><line x1="1369" y1="576.76" x2="1423" y2="576.76" stroke="#46555b" stroke-width="7"/><line x1="1423" y1="576.76" x2="1522" y2="512.3199999999999" stroke="#46555b" stroke-width="7"/><line x1="1522" y1="512.3199999999999" x2="1576" y2="512.3199999999999" stroke="#286b5c" stroke-width="9"/><text x="1423" y="560.2" text-anchor="middle" class="tiny">ST-02 懸空薄踏步＋雙連續鋼箱梯梁／22R</text></g>
    <g data-entity="Z-ST-02-PLANT-01" data-planter-count="3"><rect x="1296.1200000000001" y="631.2" width="14" height="10" rx="3" class="plant"/><path d="M1303.1200000000001 631.2q-8 -18 -13 -26" fill="none" stroke="#52774b" stroke-width="2"/><rect x="1312.68" y="631.2" width="14" height="10" rx="3" class="plant"/><path d="M1319.68 631.2q8 -18 13 -26" fill="none" stroke="#52774b" stroke-width="2"/><rect x="1329.2400000000002" y="631.2" width="14" height="10" rx="3" class="plant"/><path d="M1336.2400000000002 631.2q-8 -18 -13 -26" fill="none" stroke="#52774b" stroke-width="2"/><text x="1320.3999999999999" y="662.08" text-anchor="middle" class="tiny">梯下 3 組可移除耐陰盆栽</text></g>
    <g data-entity="RF-PV-RES-01" data-area="169.364" data-coverage-percent="92.74" data-capacity-status="deferred"><rect x="1097.9920000000002" y="370.48" width="469.0079999999999" height="8" class="pv"/><text x="1332.496" y="345.36" text-anchor="middle" class="tiny">3F 屋頂光電高覆蓋率排布 169.4 m²／92.74%／容量待定</text></g>
    <g><rect x="1216" y="641.2" width="162" height="108" class="confirmed"/><rect x="1378" y="641.2" width="126" height="115.2" class="working"/><text x="1297" y="700.6" text-anchor="middle" class="tiny">泳池側廁所 +0.30</text><text x="1441" y="704.2" text-anchor="middle" class="tiny">操場側廁所 +0.10</text><rect x="1504" y="756.4" width="72" height="4" class="deferred"/></g>
    <rect x="60" y="842" width="1630" height="84" rx="9" class="note"/><text x="82" y="873" class="small">剖面補齊 L1 西端 X0.5、L2 X29、L2／L3 X41 垂直牆；EN-01 不在中心剖切線上，故以投影虛線表示。L2 天花與 L3 屋頂均連續。</text><text x="82" y="902" class="small">X0～X0.5 玻璃屋簷與雨水回收、後側玻璃屋簷均標示；3F 太陽能板採淡藍透明圖層。結構、防水、排水、容量、眩光、消防與儲能仍須專業核定。</text>
  <g transform="translate(60 962)"><rect width="1800" height="78" class="titleBox"/><line x1="1020" y1="0" x2="1020" y2="78" stroke="#263746"/><line x1="1320" y1="0" x2="1320" y2="78" stroke="#263746"/><line x1="1570" y1="0" x2="1570" y2="78" stroke="#263746"/><text x="20" y="27" class="small">國立臺中教育大學附設實驗國民小學游泳池翻修</text><text x="20" y="58" class="label">縱向概念剖面圖</text><text x="1040" y="25" class="tiny">圖號</text><text x="1040" y="55" class="label">DRAW-LONGITUDINAL-SECTION</text><text x="1340" y="25" class="tiny">模型／幾何</text><text x="1340" y="55" class="label">0.6.6／GEO-0.6.6</text><text x="1590" y="25" class="tiny">狀態</text><text x="1590" y="55" class="label">概念設計 · 非施工圖</text></g>
  </svg>
