<svg xmlns="http://www.w3.org/2000/svg" width="1920" height="1080" viewBox="0 0 1920 1080" role="img" aria-labelledby="title desc" data-model-version="0.6.6" data-active-geometry="GEO-0.6.6" data-coordinate-system="SITE-XY">
  <title id="title">2F 概念平面圖 v0.6.6</title><desc id="desc">PROJECT / MODEL v0.6.6 · Review A · 固定正交樓板 +3.30 m · SITE-XY。概念設計，非施工圖。</desc><style>
  text{font-family:"Noto Sans TC","Microsoft JhengHei",sans-serif;fill:#263746}.title{font-size:31px;font-weight:800}.subtitle{font-size:15px;fill:#536b75}.label{font-size:14px;font-weight:700}.small{font-size:12px}.tiny{font-size:10px}.grid{stroke:#cbd7da;stroke-width:.55}.gridMajor{stroke:#9fb2b8;stroke-width:.9}.outline{fill:none;stroke:#263746;stroke-width:2}.reference{fill:#eef2f2;stroke:#97a8ad;stroke-width:1.2;stroke-dasharray:7 5}.pool{fill:#bfe4ef;stroke:#227698;stroke-width:2}.lane{stroke:#f8fbfc;stroke-width:2;stroke-dasharray:8 5}.working{fill:#f1dfbe;stroke:#a96f28;stroke-width:1.6}.confirmed{fill:#d8ece4;stroke:#237c64;stroke-width:1.6}.service{fill:#dbe5e6;stroke:#5b7278;stroke-width:1.6}.chemical{fill:#ead9e8;stroke:#8e5a88;stroke-width:1.6}.deferred{fill:#e4dbed;stroke:#7c5c98;stroke-width:1.5;stroke-dasharray:6 4}.stair{fill:#d7dde0;stroke:#263746;stroke-width:1.6}.structure{fill:#c3793c;fill-opacity:.18;stroke:#a95c25;stroke-width:2.2;stroke-dasharray:8 4}.dim{stroke:#536b75;stroke-width:1;fill:none}.titleBox{fill:#f6f8f8;stroke:#263746;stroke-width:1.2}.note{fill:#f7f8f8;stroke:#a8b6ba;stroke-width:1}.mirror{stroke:#4f8792;stroke-width:7}.roof{fill:#d8eef2;fill-opacity:.28;stroke:#4f95a8;stroke-width:2}.level{stroke:#8b9ba0;stroke-width:1;stroke-dasharray:7 5}.water{fill:#8fd2e6;fill-opacity:.75;stroke:#227698;stroke-width:2}.wall{fill:#c9d3d4;stroke:#536b75;stroke-width:1.5}.terrace{fill:#cfe1c5;stroke:#52774b;stroke-width:1.7}.arrival{fill:#d7e8df;stroke:#286b5c;stroke-width:2}.corridor{fill:#dcecef;stroke:#357487;stroke-width:1.6}.female{fill:#e5e0ee;stroke:#76598d;stroke-width:1.6}.glassLine{stroke:#3d9bb3;stroke-width:7}.wallLine{stroke:#65757b;stroke-width:6}.windowLine{stroke:#4fa5bb;stroke-width:8}.locker{fill:#cfd8d8;stroke:#64787a;stroke-width:1}.counter{fill:#d7c5ab;stroke:#8a6234;stroke-width:1.5}.plant{fill:#bed6b2;stroke:#52774b;stroke-width:1.3}.pv{fill:#8fd9ee;fill-opacity:.24;stroke:#3d91b4;stroke-width:1.8}.pvGrid{stroke:#4f9fc1;stroke-width:.8;stroke-opacity:.82}.projected{fill:none;stroke:#9b6a43;stroke-width:1.5;stroke-dasharray:6 4}.rain{fill:#d9e5ef;fill-opacity:.55;stroke:#6f6a96;stroke-width:1.5;stroke-dasharray:5 3}
</style>
  <rect width="1920" height="1080" fill="#fff"/><text x="72" y="66" class="title">2F 概念平面圖</text><text x="74" y="98" class="subtitle">PROJECT / MODEL v0.6.6 · Review A · 固定正交樓板 +3.30 m · SITE-XY</text>
  <g data-north-plan-direction="lower-right" data-north-rotation="127" transform="translate(1690 190) rotate(127)"><line x1="0" y1="52" x2="0" y2="-38" stroke="#c4553f" stroke-width="4"/><path d="M0 -58L-10 -34H10Z" fill="#c4553f"/><text x="0" y="-70" text-anchor="middle" class="label">N</text></g><text x="1540" y="286" class="tiny">真北＝圖面右下；圖面右＝+X＝西北 307°</text><g data-entity="SITE-01" data-coordinate-system="SITE-XY" data-bounds="0,41,0,14"><rect x="105" y="286" width="1476" height="504" class="reference"/><text x="843" y="542" text-anchor="middle" class="small">1F 基地參照</text></g><g data-entity="L2-PLATE-01" data-coordinate-system="SITE-XY" data-bounds="29,41,0,13.5"><rect x="1149" y="304" width="432" height="486" class="outline"/></g>
    <polygon points="1149,790 1275,790 1275,700 1257,700 1257,304 1149,304" class="corridor" data-entity="Z-L2-CORRIDOR-01" data-area="41.75"/>
    <g data-entity="Z-ST-02-01" data-coordinate-system="SITE-XY" data-bounds="32.5,41,0,2.5"><rect x="1275" y="700" width="306" height="90" class="stair"/><text x="1428" y="749" text-anchor="middle" class="small">ST-02 獨立區</text></g><g data-entity="Z-CS-M-01" data-coordinate-system="SITE-XY" data-bounds="32,41,2.5,8"><rect x="1257" y="502" width="324" height="198" class="working"/><text x="1419" y="605" text-anchor="middle" class="small">男更衣／淋浴 15</text></g><g data-entity="Z-CS-F-01" data-coordinate-system="SITE-XY" data-bounds="32,41,8,13.5"><rect x="1257" y="304" width="324" height="198" class="female"/><text x="1419" y="407" text-anchor="middle" class="small">女更衣／淋浴 15</text></g>
    <rect x="1149" y="322" width="27" height="370.8" fill="#bfe4ef" fill-opacity=".35"/>
    <g aria-label="SITE-XY 0.5 m grid" data-grid-visible="true" data-minor-spacing="0.5" data-major-spacing="2.5"><line x1="105" y1="286" x2="105" y2="790" class="gridMajor"/><text x="105" y="810" text-anchor="middle" class="tiny">X0</text><line x1="123" y1="286" x2="123" y2="790" class="grid"/><line x1="141" y1="286" x2="141" y2="790" class="grid"/><line x1="159" y1="286" x2="159" y2="790" class="grid"/><line x1="177" y1="286" x2="177" y2="790" class="grid"/><line x1="195" y1="286" x2="195" y2="790" class="gridMajor"/><text x="195" y="810" text-anchor="middle" class="tiny">X2.5</text><line x1="213" y1="286" x2="213" y2="790" class="grid"/><line x1="231" y1="286" x2="231" y2="790" class="grid"/><line x1="249" y1="286" x2="249" y2="790" class="grid"/><line x1="267" y1="286" x2="267" y2="790" class="grid"/><line x1="285" y1="286" x2="285" y2="790" class="gridMajor"/><text x="285" y="810" text-anchor="middle" class="tiny">X5</text><line x1="303" y1="286" x2="303" y2="790" class="grid"/><line x1="321" y1="286" x2="321" y2="790" class="grid"/><line x1="339" y1="286" x2="339" y2="790" class="grid"/><line x1="357" y1="286" x2="357" y2="790" class="grid"/><line x1="375" y1="286" x2="375" y2="790" class="gridMajor"/><text x="375" y="810" text-anchor="middle" class="tiny">X7.5</text><line x1="393" y1="286" x2="393" y2="790" class="grid"/><line x1="411" y1="286" x2="411" y2="790" class="grid"/><line x1="429" y1="286" x2="429" y2="790" class="grid"/><line x1="447" y1="286" x2="447" y2="790" class="grid"/><line x1="465" y1="286" x2="465" y2="790" class="gridMajor"/><text x="465" y="810" text-anchor="middle" class="tiny">X10</text><line x1="483" y1="286" x2="483" y2="790" class="grid"/><line x1="501" y1="286" x2="501" y2="790" class="grid"/><line x1="519" y1="286" x2="519" y2="790" class="grid"/><line x1="537" y1="286" x2="537" y2="790" class="grid"/><line x1="555" y1="286" x2="555" y2="790" class="gridMajor"/><text x="555" y="810" text-anchor="middle" class="tiny">X12.5</text><line x1="573" y1="286" x2="573" y2="790" class="grid"/><line x1="591" y1="286" x2="591" y2="790" class="grid"/><line x1="609" y1="286" x2="609" y2="790" class="grid"/><line x1="627" y1="286" x2="627" y2="790" class="grid"/><line x1="645" y1="286" x2="645" y2="790" class="gridMajor"/><text x="645" y="810" text-anchor="middle" class="tiny">X15</text><line x1="663" y1="286" x2="663" y2="790" class="grid"/><line x1="681" y1="286" x2="681" y2="790" class="grid"/><line x1="699" y1="286" x2="699" y2="790" class="grid"/><line x1="717" y1="286" x2="717" y2="790" class="grid"/><line x1="735" y1="286" x2="735" y2="790" class="gridMajor"/><text x="735" y="810" text-anchor="middle" class="tiny">X17.5</text><line x1="753" y1="286" x2="753" y2="790" class="grid"/><line x1="771" y1="286" x2="771" y2="790" class="grid"/><line x1="789" y1="286" x2="789" y2="790" class="grid"/><line x1="807" y1="286" x2="807" y2="790" class="grid"/><line x1="825" y1="286" x2="825" y2="790" class="gridMajor"/><text x="825" y="810" text-anchor="middle" class="tiny">X20</text><line x1="843" y1="286" x2="843" y2="790" class="grid"/><line x1="861" y1="286" x2="861" y2="790" class="grid"/><line x1="879" y1="286" x2="879" y2="790" class="grid"/><line x1="897" y1="286" x2="897" y2="790" class="grid"/><line x1="915" y1="286" x2="915" y2="790" class="gridMajor"/><text x="915" y="810" text-anchor="middle" class="tiny">X22.5</text><line x1="933" y1="286" x2="933" y2="790" class="grid"/><line x1="951" y1="286" x2="951" y2="790" class="grid"/><line x1="969" y1="286" x2="969" y2="790" class="grid"/><line x1="987" y1="286" x2="987" y2="790" class="grid"/><line x1="1005" y1="286" x2="1005" y2="790" class="gridMajor"/><text x="1005" y="810" text-anchor="middle" class="tiny">X25</text><line x1="1023" y1="286" x2="1023" y2="790" class="grid"/><line x1="1041" y1="286" x2="1041" y2="790" class="grid"/><line x1="1059" y1="286" x2="1059" y2="790" class="grid"/><line x1="1077" y1="286" x2="1077" y2="790" class="grid"/><line x1="1095" y1="286" x2="1095" y2="790" class="gridMajor"/><text x="1095" y="810" text-anchor="middle" class="tiny">X27.5</text><line x1="1113" y1="286" x2="1113" y2="790" class="grid"/><line x1="1131" y1="286" x2="1131" y2="790" class="grid"/><line x1="1149" y1="286" x2="1149" y2="790" class="grid"/><line x1="1167" y1="286" x2="1167" y2="790" class="grid"/><line x1="1185" y1="286" x2="1185" y2="790" class="gridMajor"/><text x="1185" y="810" text-anchor="middle" class="tiny">X30</text><line x1="1203" y1="286" x2="1203" y2="790" class="grid"/><line x1="1221" y1="286" x2="1221" y2="790" class="grid"/><line x1="1239" y1="286" x2="1239" y2="790" class="grid"/><line x1="1257" y1="286" x2="1257" y2="790" class="grid"/><line x1="1275" y1="286" x2="1275" y2="790" class="gridMajor"/><text x="1275" y="810" text-anchor="middle" class="tiny">X32.5</text><line x1="1293" y1="286" x2="1293" y2="790" class="grid"/><line x1="1311" y1="286" x2="1311" y2="790" class="grid"/><line x1="1329" y1="286" x2="1329" y2="790" class="grid"/><line x1="1347" y1="286" x2="1347" y2="790" class="grid"/><line x1="1365" y1="286" x2="1365" y2="790" class="gridMajor"/><text x="1365" y="810" text-anchor="middle" class="tiny">X35</text><line x1="1383" y1="286" x2="1383" y2="790" class="grid"/><line x1="1401" y1="286" x2="1401" y2="790" class="grid"/><line x1="1419" y1="286" x2="1419" y2="790" class="grid"/><line x1="1437" y1="286" x2="1437" y2="790" class="grid"/><line x1="1455" y1="286" x2="1455" y2="790" class="gridMajor"/><text x="1455" y="810" text-anchor="middle" class="tiny">X37.5</text><line x1="1473" y1="286" x2="1473" y2="790" class="grid"/><line x1="1491" y1="286" x2="1491" y2="790" class="grid"/><line x1="1509" y1="286" x2="1509" y2="790" class="grid"/><line x1="1527" y1="286" x2="1527" y2="790" class="grid"/><line x1="1545" y1="286" x2="1545" y2="790" class="gridMajor"/><text x="1545" y="810" text-anchor="middle" class="tiny">X40</text><line x1="1563" y1="286" x2="1563" y2="790" class="grid"/><line x1="1581" y1="286" x2="1581" y2="790" class="grid"/><text x="1581" y="810" text-anchor="middle" class="tiny">X41</text><line x1="105" y1="790" x2="1581" y2="790" class="gridMajor"/><text x="93" y="794" text-anchor="end" class="tiny">Y0</text><line x1="105" y1="772" x2="1581" y2="772" class="grid"/><line x1="105" y1="754" x2="1581" y2="754" class="grid"/><line x1="105" y1="736" x2="1581" y2="736" class="grid"/><line x1="105" y1="718" x2="1581" y2="718" class="grid"/><line x1="105" y1="700" x2="1581" y2="700" class="gridMajor"/><text x="93" y="704" text-anchor="end" class="tiny">Y2.5</text><line x1="105" y1="682" x2="1581" y2="682" class="grid"/><line x1="105" y1="664" x2="1581" y2="664" class="grid"/><line x1="105" y1="646" x2="1581" y2="646" class="grid"/><line x1="105" y1="628" x2="1581" y2="628" class="grid"/><line x1="105" y1="610" x2="1581" y2="610" class="gridMajor"/><text x="93" y="614" text-anchor="end" class="tiny">Y5</text><line x1="105" y1="592" x2="1581" y2="592" class="grid"/><line x1="105" y1="574" x2="1581" y2="574" class="grid"/><line x1="105" y1="556" x2="1581" y2="556" class="grid"/><line x1="105" y1="538" x2="1581" y2="538" class="grid"/><line x1="105" y1="520" x2="1581" y2="520" class="gridMajor"/><text x="93" y="524" text-anchor="end" class="tiny">Y7.5</text><line x1="105" y1="502" x2="1581" y2="502" class="grid"/><line x1="105" y1="484" x2="1581" y2="484" class="grid"/><line x1="105" y1="466" x2="1581" y2="466" class="grid"/><line x1="105" y1="448" x2="1581" y2="448" class="grid"/><line x1="105" y1="430" x2="1581" y2="430" class="gridMajor"/><text x="93" y="434" text-anchor="end" class="tiny">Y10</text><line x1="105" y1="412" x2="1581" y2="412" class="grid"/><line x1="105" y1="394" x2="1581" y2="394" class="grid"/><line x1="105" y1="376" x2="1581" y2="376" class="grid"/><line x1="105" y1="358" x2="1581" y2="358" class="grid"/><line x1="105" y1="340" x2="1581" y2="340" class="gridMajor"/><text x="93" y="344" text-anchor="end" class="tiny">Y12.5</text><line x1="105" y1="322" x2="1581" y2="322" class="grid"/><line x1="105" y1="304" x2="1581" y2="304" class="grid"/><line x1="105" y1="286" x2="1581" y2="286" class="grid"/><text x="93" y="290" text-anchor="end" class="tiny">Y14</text></g>
    <line x1="1149" y1="790" x2="1581" y2="790" class="glassLine" data-entity="F-L2-Y0-01"/><text x="1419" y="824" text-anchor="middle" class="tiny">Y0 大面安全玻璃</text>
    <line x1="1257" y1="700" x2="1581" y2="700" class="wallLine" data-entity="W-L2-ST-CH-01" data-openings="0"/><text x="1419" y="692" text-anchor="middle" class="tiny">Y2.5 清水模連續分隔牆 X32～X41／無開口</text>
    <line x1="1149" y1="692.8" x2="1149" y2="322" class="windowLine" data-entity="OP-L2-POOL-VIEW-01"/>
    <line x1="1257" y1="700" x2="1257" y2="548.8" class="wallLine"/><line x1="1257" y1="512.8" x2="1257" y2="350.8" class="wallLine"/><line x1="1257" y1="314.8" x2="1257" y2="304" class="wallLine"/>
    <line x1="1257" y1="502" x2="1581" y2="502" class="wallLine"/><g data-entity="OP-L2-CS-M-01" data-clear-width="1" data-door-leaf="false"><line x1="1257" y1="548.8" x2="1257" y2="512.8" stroke="#fff" stroke-width="8"/><text x="1249.8" y="533.8" text-anchor="end" class="tiny">1.00 m 無門片</text></g><g data-entity="OP-L2-CS-F-01" data-clear-width="1" data-door-leaf="false"><line x1="1257" y1="350.8" x2="1257" y2="314.8" stroke="#fff" stroke-width="8"/><text x="1249.8" y="335.8" text-anchor="end" class="tiny">1.00 m 無門片</text></g>
    <g data-entity="Z-CS-M-01" data-shower-count="15" data-inclusive-size="1.2x1.2"><g data-shower-cubicle="CS-M-01" data-inclusive-width="1.2" data-inclusive-depth="1.2"><rect x="1357.8" y="655" width="43.2000000000001" height="43.2" fill="#f8fbfa" fill-opacity=".8" stroke="#4f7474" stroke-width="1.1"/><text x="1379.3999999999999" y="679.6" text-anchor="middle" class="tiny">M-01</text></g><g data-shower-cubicle="CS-M-02" data-inclusive-width="1.2" data-inclusive-depth="1.2"><rect x="1401" y="655" width="43.2000000000001" height="43.2" fill="#f8fbfa" fill-opacity=".8" stroke="#4f7474" stroke-width="1.1"/><text x="1422.6000000000001" y="679.6" text-anchor="middle" class="tiny">M-02</text></g><g data-shower-cubicle="CS-M-03" data-inclusive-width="1.2" data-inclusive-depth="1.2"><rect x="1444.2" y="655" width="43.19999999999985" height="43.2" fill="#f8fbfa" fill-opacity=".8" stroke="#4f7474" stroke-width="1.1"/><text x="1465.8" y="679.6" text-anchor="middle" class="tiny">M-03</text></g><g data-shower-cubicle="CS-M-04" data-inclusive-width="1.2" data-inclusive-depth="1.2"><rect x="1487.3999999999999" y="655" width="43.2000000000001" height="43.2" fill="#f8fbfa" fill-opacity=".8" stroke="#4f7474" stroke-width="1.1"/><text x="1509" y="679.6" text-anchor="middle" class="tiny">M-04</text></g><g data-shower-cubicle="CS-M-05" data-inclusive-width="1.2" data-inclusive-depth="1.2"><rect x="1530.6000000000001" y="655" width="43.19999999999985" height="43.2" fill="#f8fbfa" fill-opacity=".8" stroke="#4f7474" stroke-width="1.1"/><text x="1552.2" y="679.6" text-anchor="middle" class="tiny">M-05</text></g><g data-shower-cubicle="CS-M-06" data-inclusive-width="1.2" data-inclusive-depth="1.2"><rect x="1357.8" y="579.4" width="43.2000000000001" height="43.199999999999974" fill="#f8fbfa" fill-opacity=".8" stroke="#4f7474" stroke-width="1.1"/><text x="1379.3999999999999" y="604" text-anchor="middle" class="tiny">M-06</text></g><g data-shower-cubicle="CS-M-07" data-inclusive-width="1.2" data-inclusive-depth="1.2"><rect x="1401" y="579.4" width="43.2000000000001" height="43.199999999999974" fill="#f8fbfa" fill-opacity=".8" stroke="#4f7474" stroke-width="1.1"/><text x="1422.6000000000001" y="604" text-anchor="middle" class="tiny">M-07</text></g><g data-shower-cubicle="CS-M-08" data-inclusive-width="1.2" data-inclusive-depth="1.2"><rect x="1444.2" y="579.4" width="43.19999999999985" height="43.199999999999974" fill="#f8fbfa" fill-opacity=".8" stroke="#4f7474" stroke-width="1.1"/><text x="1465.8" y="604" text-anchor="middle" class="tiny">M-08</text></g><g data-shower-cubicle="CS-M-09" data-inclusive-width="1.2" data-inclusive-depth="1.2"><rect x="1487.3999999999999" y="579.4" width="43.2000000000001" height="43.199999999999974" fill="#f8fbfa" fill-opacity=".8" stroke="#4f7474" stroke-width="1.1"/><text x="1509" y="604" text-anchor="middle" class="tiny">M-09</text></g><g data-shower-cubicle="CS-M-10" data-inclusive-width="1.2" data-inclusive-depth="1.2"><rect x="1530.6000000000001" y="579.4" width="43.19999999999985" height="43.199999999999974" fill="#f8fbfa" fill-opacity=".8" stroke="#4f7474" stroke-width="1.1"/><text x="1552.2" y="604" text-anchor="middle" class="tiny">M-10</text></g><g data-shower-cubicle="CS-M-11" data-inclusive-width="1.2" data-inclusive-depth="1.2"><rect x="1357.8" y="503.8" width="43.2000000000001" height="43.2" fill="#f8fbfa" fill-opacity=".8" stroke="#4f7474" stroke-width="1.1"/><text x="1379.3999999999999" y="528.4000000000001" text-anchor="middle" class="tiny">M-11</text></g><g data-shower-cubicle="CS-M-12" data-inclusive-width="1.2" data-inclusive-depth="1.2"><rect x="1401" y="503.8" width="43.2000000000001" height="43.2" fill="#f8fbfa" fill-opacity=".8" stroke="#4f7474" stroke-width="1.1"/><text x="1422.6000000000001" y="528.4000000000001" text-anchor="middle" class="tiny">M-12</text></g><g data-shower-cubicle="CS-M-13" data-inclusive-width="1.2" data-inclusive-depth="1.2"><rect x="1444.2" y="503.8" width="43.19999999999985" height="43.2" fill="#f8fbfa" fill-opacity=".8" stroke="#4f7474" stroke-width="1.1"/><text x="1465.8" y="528.4000000000001" text-anchor="middle" class="tiny">M-13</text></g><g data-shower-cubicle="CS-M-14" data-inclusive-width="1.2" data-inclusive-depth="1.2"><rect x="1487.3999999999999" y="503.8" width="43.2000000000001" height="43.2" fill="#f8fbfa" fill-opacity=".8" stroke="#4f7474" stroke-width="1.1"/><text x="1509" y="528.4000000000001" text-anchor="middle" class="tiny">M-14</text></g><g data-shower-cubicle="CS-M-15" data-inclusive-width="1.2" data-inclusive-depth="1.2"><rect x="1530.6000000000001" y="503.8" width="43.19999999999985" height="43.2" fill="#f8fbfa" fill-opacity=".8" stroke="#4f7474" stroke-width="1.1"/><text x="1552.2" y="528.4000000000001" text-anchor="middle" class="tiny">M-15</text></g></g><g data-entity="Z-CS-F-01" data-shower-count="15" data-inclusive-size="1.2x1.2"><g data-shower-cubicle="CS-F-01" data-inclusive-width="1.2" data-inclusive-depth="1.2"><rect x="1357.8" y="457" width="43.2000000000001" height="43.199999999999974" fill="#f8fbfa" fill-opacity=".8" stroke="#4f7474" stroke-width="1.1"/><text x="1379.3999999999999" y="481.59999999999997" text-anchor="middle" class="tiny">F-01</text></g><g data-shower-cubicle="CS-F-02" data-inclusive-width="1.2" data-inclusive-depth="1.2"><rect x="1401" y="457" width="43.2000000000001" height="43.199999999999974" fill="#f8fbfa" fill-opacity=".8" stroke="#4f7474" stroke-width="1.1"/><text x="1422.6000000000001" y="481.59999999999997" text-anchor="middle" class="tiny">F-02</text></g><g data-shower-cubicle="CS-F-03" data-inclusive-width="1.2" data-inclusive-depth="1.2"><rect x="1444.2" y="457" width="43.19999999999985" height="43.199999999999974" fill="#f8fbfa" fill-opacity=".8" stroke="#4f7474" stroke-width="1.1"/><text x="1465.8" y="481.59999999999997" text-anchor="middle" class="tiny">F-03</text></g><g data-shower-cubicle="CS-F-04" data-inclusive-width="1.2" data-inclusive-depth="1.2"><rect x="1487.3999999999999" y="457" width="43.2000000000001" height="43.199999999999974" fill="#f8fbfa" fill-opacity=".8" stroke="#4f7474" stroke-width="1.1"/><text x="1509" y="481.59999999999997" text-anchor="middle" class="tiny">F-04</text></g><g data-shower-cubicle="CS-F-05" data-inclusive-width="1.2" data-inclusive-depth="1.2"><rect x="1530.6000000000001" y="457" width="43.19999999999985" height="43.199999999999974" fill="#f8fbfa" fill-opacity=".8" stroke="#4f7474" stroke-width="1.1"/><text x="1552.2" y="481.59999999999997" text-anchor="middle" class="tiny">F-05</text></g><g data-shower-cubicle="CS-F-06" data-inclusive-width="1.2" data-inclusive-depth="1.2"><rect x="1357.8" y="381.40000000000003" width="43.2000000000001" height="43.199999999999974" fill="#f8fbfa" fill-opacity=".8" stroke="#4f7474" stroke-width="1.1"/><text x="1379.3999999999999" y="406" text-anchor="middle" class="tiny">F-06</text></g><g data-shower-cubicle="CS-F-07" data-inclusive-width="1.2" data-inclusive-depth="1.2"><rect x="1401" y="381.40000000000003" width="43.2000000000001" height="43.199999999999974" fill="#f8fbfa" fill-opacity=".8" stroke="#4f7474" stroke-width="1.1"/><text x="1422.6000000000001" y="406" text-anchor="middle" class="tiny">F-07</text></g><g data-shower-cubicle="CS-F-08" data-inclusive-width="1.2" data-inclusive-depth="1.2"><rect x="1444.2" y="381.40000000000003" width="43.19999999999985" height="43.199999999999974" fill="#f8fbfa" fill-opacity=".8" stroke="#4f7474" stroke-width="1.1"/><text x="1465.8" y="406" text-anchor="middle" class="tiny">F-08</text></g><g data-shower-cubicle="CS-F-09" data-inclusive-width="1.2" data-inclusive-depth="1.2"><rect x="1487.3999999999999" y="381.40000000000003" width="43.2000000000001" height="43.199999999999974" fill="#f8fbfa" fill-opacity=".8" stroke="#4f7474" stroke-width="1.1"/><text x="1509" y="406" text-anchor="middle" class="tiny">F-09</text></g><g data-shower-cubicle="CS-F-10" data-inclusive-width="1.2" data-inclusive-depth="1.2"><rect x="1530.6000000000001" y="381.40000000000003" width="43.19999999999985" height="43.199999999999974" fill="#f8fbfa" fill-opacity=".8" stroke="#4f7474" stroke-width="1.1"/><text x="1552.2" y="406" text-anchor="middle" class="tiny">F-10</text></g><g data-shower-cubicle="CS-F-11" data-inclusive-width="1.2" data-inclusive-depth="1.2"><rect x="1357.8" y="305.8" width="43.2000000000001" height="43.199999999999974" fill="#f8fbfa" fill-opacity=".8" stroke="#4f7474" stroke-width="1.1"/><text x="1379.3999999999999" y="330.40000000000003" text-anchor="middle" class="tiny">F-11</text></g><g data-shower-cubicle="CS-F-12" data-inclusive-width="1.2" data-inclusive-depth="1.2"><rect x="1401" y="305.8" width="43.2000000000001" height="43.199999999999974" fill="#f8fbfa" fill-opacity=".8" stroke="#4f7474" stroke-width="1.1"/><text x="1422.6000000000001" y="330.40000000000003" text-anchor="middle" class="tiny">F-12</text></g><g data-shower-cubicle="CS-F-13" data-inclusive-width="1.2" data-inclusive-depth="1.2"><rect x="1444.2" y="305.8" width="43.19999999999985" height="43.199999999999974" fill="#f8fbfa" fill-opacity=".8" stroke="#4f7474" stroke-width="1.1"/><text x="1465.8" y="330.40000000000003" text-anchor="middle" class="tiny">F-13</text></g><g data-shower-cubicle="CS-F-14" data-inclusive-width="1.2" data-inclusive-depth="1.2"><rect x="1487.3999999999999" y="305.8" width="43.2000000000001" height="43.199999999999974" fill="#f8fbfa" fill-opacity=".8" stroke="#4f7474" stroke-width="1.1"/><text x="1509" y="330.40000000000003" text-anchor="middle" class="tiny">F-14</text></g><g data-shower-cubicle="CS-F-15" data-inclusive-width="1.2" data-inclusive-depth="1.2"><rect x="1530.6000000000001" y="305.8" width="43.19999999999985" height="43.199999999999974" fill="#f8fbfa" fill-opacity=".8" stroke="#4f7474" stroke-width="1.1"/><text x="1552.2" y="330.40000000000003" text-anchor="middle" class="tiny">F-15</text></g></g><g data-zone-support="Z-CS-M-01" data-wc-count="1" data-washbasin-count="2"><g data-fixture="wc" data-door-leaf="true"><rect x="1263.48" y="640.6" width="43.2000000000001" height="54.000000000000014" fill="#f4e8e0" stroke="#76598d"/><rect x="1278.08" y="675.92" width="14" height="10" rx="3" fill="#fff" stroke="#536b75"/></g><ellipse data-fixture="washbasin" cx="1275" cy="611.8" rx="10" ry="6" fill="#d9edf2" stroke="#367486"/><ellipse data-fixture="washbasin" cx="1275" cy="584.08" rx="10" ry="6" fill="#d9edf2" stroke="#367486"/><rect x="1341.96" y="629.8" width="12.240000000000123" height="55.80000000000001" class="locker"/><rect x="1341.96" y="509.2" width="12.240000000000123" height="55.8" class="locker"/></g><g data-zone-support="Z-CS-F-01" data-wc-count="1" data-washbasin-count="2"><g data-fixture="wc" data-door-leaf="true"><rect x="1263.48" y="442.59999999999997" width="43.2000000000001" height="54" fill="#f4e8e0" stroke="#76598d"/><rect x="1278.08" y="477.91999999999996" width="14" height="10" rx="3" fill="#fff" stroke="#536b75"/></g><ellipse data-fixture="washbasin" cx="1275" cy="413.8" rx="10" ry="6" fill="#d9edf2" stroke="#367486"/><ellipse data-fixture="washbasin" cx="1275" cy="386.08" rx="10" ry="6" fill="#d9edf2" stroke="#367486"/><rect x="1341.96" y="428.2" width="12.240000000000123" height="55.800000000000026" class="locker"/><rect x="1341.96" y="309.40000000000003" width="12.240000000000123" height="55.79999999999996" class="locker"/></g><g data-entity="ST-02" data-axis="+x" data-lower-start-x="32.5" data-y-band="0.5,2" data-design-intent="suspended-floating-stair"><g data-entity="ST-02" data-coordinate-system="SITE-XY" data-bounds="32.5,41,0.5,2"><rect x="1275" y="718" width="306" height="54" class="stair"/></g><line x1="1284.8999999999999" y1="718" x2="1284.8999999999999" y2="772" stroke="#263746" stroke-width=".85"/><line x1="1437.8999999999999" y1="718" x2="1437.8999999999999" y2="772" stroke="#263746" stroke-width=".85"/><line x1="1294.8" y1="718" x2="1294.8" y2="772" stroke="#263746" stroke-width=".85"/><line x1="1447.8" y1="718" x2="1447.8" y2="772" stroke="#263746" stroke-width=".85"/><line x1="1304.7" y1="718" x2="1304.7" y2="772" stroke="#263746" stroke-width=".85"/><line x1="1457.7" y1="718" x2="1457.7" y2="772" stroke="#263746" stroke-width=".85"/><line x1="1314.6000000000001" y1="718" x2="1314.6000000000001" y2="772" stroke="#263746" stroke-width=".85"/><line x1="1467.6000000000001" y1="718" x2="1467.6000000000001" y2="772" stroke="#263746" stroke-width=".85"/><line x1="1324.5" y1="718" x2="1324.5" y2="772" stroke="#263746" stroke-width=".85"/><line x1="1477.5" y1="718" x2="1477.5" y2="772" stroke="#263746" stroke-width=".85"/><line x1="1334.3999999999999" y1="718" x2="1334.3999999999999" y2="772" stroke="#263746" stroke-width=".85"/><line x1="1487.3999999999999" y1="718" x2="1487.3999999999999" y2="772" stroke="#263746" stroke-width=".85"/><line x1="1344.3" y1="718" x2="1344.3" y2="772" stroke="#263746" stroke-width=".85"/><line x1="1497.3" y1="718" x2="1497.3" y2="772" stroke="#263746" stroke-width=".85"/><line x1="1354.2" y1="718" x2="1354.2" y2="772" stroke="#263746" stroke-width=".85"/><line x1="1507.2" y1="718" x2="1507.2" y2="772" stroke="#263746" stroke-width=".85"/><line x1="1364.1000000000001" y1="718" x2="1364.1000000000001" y2="772" stroke="#263746" stroke-width=".85"/><line x1="1517.1000000000001" y1="718" x2="1517.1000000000001" y2="772" stroke="#263746" stroke-width=".85"/><line x1="1374" y1="718" x2="1374" y2="772" stroke="#263746" stroke-width=".85"/><line x1="1527" y1="718" x2="1527" y2="772" stroke="#263746" stroke-width=".85"/><rect x="1374" y="718" width="54" height="54" fill="#bfc9cd"/><rect x="1527" y="718" width="54" height="54" fill="#d7e7df"/><line x1="1293" y1="745" x2="1552.2" y2="745" stroke="#9a4e2d" stroke-width="3"/><path d="M1552.2 745l-14 -7v14z" fill="#9a4e2d"/><text x="1428" y="710.8" text-anchor="middle" class="tiny">ST-02 懸空式：X32.5 起步 → +X／22R／20T</text><g data-entity="Z-ST-02-PLANT-01" data-planter-count="3"><circle cx="1308.6000000000001" cy="753.28" r="8" class="plant"/><circle cx="1325.4" cy="736.72" r="8" class="plant"/><circle cx="1342.2" cy="753.28" r="8" class="plant"/></g></g>
    <rect x="1341.96" y="629.8" width="12.240000000000123" height="55.80000000000001" class="locker"/><rect x="1341.96" y="509.2" width="12.240000000000123" height="55.8" class="locker"/><rect x="1341.96" y="428.2" width="12.240000000000123" height="55.800000000000026" class="locker"/><rect x="1341.96" y="309.40000000000003" width="12.240000000000123" height="55.79999999999996" class="locker"/>
    <rect x="1156.92" y="341.8" width="22.320000000000036" height="129.6" rx="3" class="counter"/><text x="1168.08" y="406.59999999999997" text-anchor="middle" class="tiny" transform="rotate(-90 1168.08 406.59999999999997)">懸空站立長桌／無椅</text>
    <rect x="1207.32" y="651.4" width="22.319999999999908" height="25.92000000000001" rx="3" class="service"/><text x="1218.48" y="668.8" text-anchor="middle" class="tiny">飲水機</text>
    <circle cx="1186.8" cy="622.6" r="9" class="plant"/><circle cx="1227.48" cy="572.2" r="9" class="plant"/><circle cx="1219.2" cy="320.2" r="9" class="plant"/>
    <text x="1199.3999999999999" y="502" text-anchor="middle" class="tiny" transform="rotate(-90 1199.3999999999999 502)">L 形面池觀景走道 · 站立使用</text>
    <text x="1185" y="758" text-anchor="middle" class="tiny">ST-01 到達／走道起點</text>
    <rect x="60" y="845" width="1560" height="82" rx="9" class="note"/><text x="82" y="875" class="small">Review A：男區 Y2.5～8、女區 Y8～13.5；男女各 15 間含隔間 1.20 × 1.20 m 淋浴模組＋1 WC＋2 洗手槽，入口均為 X32 的 1.00 m 無門片開口。</text><text x="82" y="902" class="small">L 形走道沿 X29 觀景窗設懸空站立桌（無椅）、飲水機與盆栽；ST-02 採懸空雙梯梁語彙並於梯下配置 3 組可移除耐陰植栽。無障礙、排水、避難與結構仍待專業驗證。</text>
  <g transform="translate(60 962)"><rect width="1800" height="78" class="titleBox"/><line x1="1020" y1="0" x2="1020" y2="78" stroke="#263746"/><line x1="1320" y1="0" x2="1320" y2="78" stroke="#263746"/><line x1="1570" y1="0" x2="1570" y2="78" stroke="#263746"/><text x="20" y="27" class="small">國立臺中教育大學附設實驗國民小學游泳池翻修</text><text x="20" y="58" class="label">2F 概念平面圖</text><text x="1040" y="25" class="tiny">圖號</text><text x="1040" y="55" class="label">DRAW-L2-PLAN</text><text x="1340" y="25" class="tiny">模型／幾何</text><text x="1340" y="55" class="label">0.6.6／GEO-0.6.6</text><text x="1590" y="25" class="tiny">狀態</text><text x="1590" y="55" class="label">概念設計 · 非施工圖</text></g>
  </svg>
